<svg xmlns="http://www.w3.org/2000/svg" viewBox="0 0 1024 1024" version="1.1">
<g id="Parent-Group"><g id="Group-rgba(0,0,0,0)" fill="rgba(0,0,0,0)">
<path fill="rgba(0,0,0,0)" opacity="1.00" d=" M 0.00 0.00 L 195.16 0.00 C 195.04 105.05 195.23 210.10 195.08 315.15 C 178.19 320.48 162.73 330.93 152.31 345.35 C 143.18 357.83 138.79 373.57 139.33 388.96 C 132.11 383.51 123.01 380.57 113.97 380.76 C 111.58 380.72 109.49 381.96 107.49 383.10 C 108.70 385.04 110.35 386.67 112.47 387.58 C 121.23 391.56 130.66 393.70 139.74 396.78 C 129.41 398.50 119.59 402.83 111.31 409.23 C 90.54 425.04 76.17 447.91 66.89 472.02 C 59.05 493.04 53.91 515.39 54.63 537.93 C 55.19 558.70 60.69 579.06 68.61 598.17 C 75.44 614.20 83.88 629.59 94.37 643.52 C 104.16 656.61 116.03 668.30 129.97 676.93 C 149.30 689.20 172.39 694.79 195.16 694.75 C 195.25 703.21 195.14 711.68 195.24 720.15 C 174.66 719.35 153.86 720.45 133.73 724.97 C 125.37 726.98 117.05 729.54 109.40 733.51 C 106.83 734.73 105.27 737.22 104.96 740.02 C 77.85 767.21 58.54 801.02 42.71 835.72 C 27.29 869.70 15.45 905.17 5.00 940.95 C 3.16 947.45 1.34 953.96 0.00 960.60 L 0.00 0.00 Z" />
<path fill="rgba(0,0,0,0)" opacity="1.00" d=" M 200.41 0.00 L 1024.00 0.00 L 1024.00 756.72 C 933.39 756.96 842.79 756.62 752.18 756.87 C 752.51 730.80 751.36 704.72 752.11 678.65 C 811.73 678.48 871.35 678.73 930.97 678.54 C 935.43 678.75 939.08 674.37 938.41 670.02 C 938.54 581.02 938.38 492.01 938.15 403.02 C 938.69 398.28 935.09 393.42 930.05 393.92 C 776.38 393.83 622.71 393.97 469.05 393.87 C 464.46 393.99 459.87 394.66 455.38 395.54 C 451.34 396.70 449.97 401.17 450.09 404.95 C 450.06 492.33 450.04 579.71 450.10 667.09 C 450.10 671.54 453.23 676.22 457.74 677.17 C 460.76 677.82 463.82 678.35 466.91 678.58 C 524.19 678.66 581.47 678.43 638.74 678.66 C 639.22 704.65 639.24 730.64 638.89 756.63 C 553.92 756.95 468.95 756.64 383.97 756.83 C 381.29 756.84 378.39 756.75 376.23 758.63 C 379.12 762.18 383.98 761.25 388.02 761.44 C 483.68 761.17 579.34 761.27 675.01 761.40 C 791.34 761.23 907.67 761.21 1024.00 761.32 L 1024.00 779.56 C 980.66 779.86 937.33 779.68 893.99 779.73 C 737.98 779.68 581.97 779.79 425.96 779.68 C 420.42 779.61 414.89 779.75 409.40 780.47 C 404.49 777.85 399.98 774.52 395.07 771.88 C 376.15 760.82 355.82 752.37 335.17 745.12 C 339.49 734.13 342.85 722.79 346.69 711.63 C 360.11 710.28 373.73 707.53 385.37 700.35 C 399.89 691.67 410.63 677.49 416.66 661.82 C 424.06 642.81 426.18 622.21 426.13 601.95 C 425.48 597.35 430.19 594.43 430.35 590.00 C 430.57 583.46 426.23 578.18 423.89 572.44 C 423.15 561.30 423.11 550.10 422.22 538.96 C 420.60 518.63 419.71 498.24 417.71 477.94 C 417.71 476.44 417.88 474.98 418.23 473.53 C 417.89 473.09 417.19 472.21 416.84 471.78 C 415.82 459.83 414.05 447.97 412.72 436.06 C 424.58 428.83 432.43 416.29 435.71 402.98 C 438.11 392.91 437.30 381.48 430.92 372.98 C 424.40 364.20 413.98 359.74 404.04 356.07 C 397.68 353.89 391.41 350.85 384.56 350.79 C 378.50 331.91 358.16 320.31 338.95 320.41 C 323.88 320.65 308.91 325.04 295.75 332.32 C 269.74 310.49 232.79 305.98 200.53 313.68 C 200.46 209.12 200.61 104.56 200.41 0.00 Z" />
<path fill="rgba(0,0,0,0)" opacity="1.00" d=" M 163.01 730.51 C 187.29 729.01 211.67 730.39 235.81 733.13 C 260.73 736.09 285.46 740.83 309.64 747.57 C 344.65 757.41 378.88 771.37 408.87 792.19 C 420.76 800.36 432.00 809.53 442.00 819.95 C 447.13 825.29 450.17 832.16 453.09 838.86 C 459.85 855.14 464.54 872.18 468.93 889.22 C 473.68 908.34 478.02 927.56 481.64 946.93 C 486.34 972.38 490.73 998.05 490.85 1024.00 L 327.55 1024.00 C 328.96 994.46 340.53 966.41 355.12 941.04 C 372.75 911.38 394.88 884.59 418.75 859.76 C 426.92 851.23 435.67 843.28 444.46 835.41 C 446.36 834.05 446.17 831.80 445.73 829.79 C 441.84 828.89 438.72 831.65 435.87 833.83 C 424.18 843.04 413.86 853.83 403.75 864.70 C 381.76 888.93 361.13 914.74 345.54 943.61 C 332.44 968.37 322.37 995.67 322.24 1024.00 L 0.00 1024.00 L 0.00 976.91 C 2.68 970.82 4.33 964.36 6.16 957.99 C 14.62 928.04 23.99 898.32 35.26 869.30 C 50.07 831.72 67.90 794.84 93.00 762.97 C 98.83 755.85 104.71 748.64 111.61 742.53 C 127.54 734.67 145.44 731.84 163.01 730.51 Z" />
<path fill="rgba(0,0,0,0)" opacity="1.00" d=" M 413.29 783.80 C 423.51 784.29 433.75 784.27 443.98 784.23 C 500.14 784.17 556.30 784.24 612.46 784.20 C 612.32 821.81 612.28 859.43 612.34 897.04 C 612.39 899.23 612.32 901.56 613.41 903.56 C 614.45 904.38 615.50 904.38 616.55 903.57 C 618.23 901.80 617.71 899.18 617.84 896.99 C 617.74 859.37 617.96 821.76 617.73 784.15 C 753.16 784.23 888.58 784.12 1024.00 784.17 L 1024.00 1024.00 L 502.14 1024.00 C 502.58 1002.13 499.21 980.42 495.66 958.91 C 490.20 926.89 483.61 895.00 474.32 863.86 C 470.08 850.68 465.46 837.49 458.54 825.44 C 453.19 816.43 445.36 809.28 437.71 802.26 C 430.05 795.52 422.09 789.01 413.29 783.80 Z" />
</g>
<g id="Group-000000" fill="#000000">
<path fill="#000000" opacity="1.00" d=" M 195.16 0.00 L 200.41 0.00 C 200.61 104.56 200.46 209.12 200.53 313.68 C 232.79 305.98 269.74 310.49 295.75 332.32 C 308.91 325.04 323.88 320.65 338.95 320.41 C 358.16 320.31 378.50 331.91 384.56 350.79 C 391.41 350.85 397.68 353.89 404.04 356.07 C 413.98 359.74 424.40 364.20 430.92 372.98 C 437.30 381.48 438.11 392.91 435.71 402.98 C 432.43 416.29 424.58 428.83 412.72 436.06 C 414.05 447.97 415.82 459.83 416.84 471.78 C 417.19 472.21 417.89 473.09 418.23 473.53 C 417.88 474.98 417.71 476.44 417.71 477.94 C 419.71 498.24 420.60 518.63 422.22 538.96 C 423.11 550.10 423.15 561.30 423.89 572.44 C 426.23 578.18 430.57 583.46 430.35 590.00 C 430.19 594.43 425.48 597.35 426.13 601.95 C 426.18 622.21 424.06 642.81 416.66 661.82 C 410.63 677.49 399.89 691.67 385.37 700.35 C 373.73 707.53 360.11 710.28 346.69 711.63 C 342.85 722.79 339.49 734.13 335.17 745.12 C 355.82 752.37 376.15 760.82 395.07 771.88 C 399.98 774.52 404.49 777.85 409.40 780.47 C 414.89 779.75 420.42 779.61 425.96 779.68 C 581.97 779.79 737.98 779.68 893.99 779.73 C 937.33 779.68 980.66 779.86 1024.00 779.56 L 1024.00 784.17 C 888.58 784.12 753.16 784.23 617.73 784.15 C 617.96 821.76 617.74 859.37 617.84 896.99 C 617.71 899.18 618.23 901.80 616.55 903.57 C 615.50 904.38 614.45 904.38 613.41 903.56 C 612.32 901.56 612.39 899.23 612.34 897.04 C 612.28 859.43 612.32 821.81 612.46 784.20 C 556.30 784.24 500.14 784.17 443.98 784.23 C 433.75 784.27 423.51 784.29 413.29 783.80 C 422.09 789.01 430.05 795.52 437.71 802.26 C 445.36 809.28 453.19 816.43 458.54 825.44 C 465.46 837.49 470.08 850.68 474.32 863.86 C 483.61 895.00 490.20 926.89 495.66 958.91 C 499.21 980.42 502.58 1002.13 502.14 1024.00 L 490.85 1024.00 C 490.73 998.05 486.34 972.38 481.64 946.93 C 478.02 927.56 473.68 908.34 468.93 889.22 C 464.54 872.18 459.85 855.14 453.09 838.86 C 450.17 832.16 447.13 825.29 442.00 819.95 C 432.00 809.53 420.76 800.36 408.87 792.19 C 378.88 771.37 344.65 757.41 309.64 747.57 C 285.46 740.83 260.73 736.09 235.81 733.13 C 211.67 730.39 187.29 729.01 163.01 730.51 C 145.44 731.84 127.54 734.67 111.61 742.53 C 104.71 748.64 98.83 755.85 93.00 762.97 C 67.90 794.84 50.07 831.72 35.26 869.30 C 23.99 898.32 14.62 928.04 6.16 957.99 C 4.33 964.36 2.68 970.82 0.00 976.91 L 0.00 960.60 C 1.34 953.96 3.16 947.45 5.00 940.95 C 15.45 905.17 27.29 869.70 42.71 835.72 C 58.54 801.02 77.85 767.21 104.96 740.02 C 105.27 737.22 106.83 734.73 109.40 733.51 C 117.05 729.54 125.37 726.98 133.73 724.97 C 153.86 720.45 174.66 719.35 195.24 720.15 C 195.14 711.68 195.25 703.21 195.16 694.75 C 172.39 694.79 149.30 689.20 129.97 676.93 C 116.03 668.30 104.16 656.61 94.37 643.52 C 83.88 629.59 75.44 614.20 68.61 598.17 C 60.69 579.06 55.19 558.70 54.63 537.93 C 53.91 515.39 59.05 493.04 66.89 472.02 C 76.17 447.91 90.54 425.04 111.31 409.23 C 119.59 402.83 129.41 398.50 139.74 396.78 C 130.66 393.70 121.23 391.56 112.47 387.58 C 110.35 386.67 108.70 385.04 107.49 383.10 C 109.49 381.96 111.58 380.72 113.97 380.76 C 123.01 380.57 132.11 383.51 139.33 388.96 C 138.79 373.57 143.18 357.83 152.31 345.35 C 162.73 330.93 178.19 320.48 195.08 315.15 C 195.23 210.10 195.04 105.05 195.16 0.00 M 293.44 372.35 C 291.93 373.35 290.06 374.86 291.15 376.88 C 293.14 377.60 294.29 375.57 295.54 374.44 C 297.80 371.73 301.51 370.88 303.72 368.11 C 303.31 367.44 302.49 366.11 302.08 365.44 C 298.76 367.18 296.57 370.36 293.44 372.35 M 110.97 383.97 C 113.68 385.61 116.83 386.23 119.79 387.27 C 125.82 389.32 131.86 391.52 138.22 392.30 C 135.14 389.59 131.51 387.58 127.66 386.21 C 122.41 384.21 116.57 382.41 110.97 383.97 M 361.46 404.03 C 360.88 405.87 363.65 404.47 364.39 404.17 C 365.25 404.47 366.12 404.77 366.99 405.08 C 367.91 403.07 366.34 401.82 364.84 400.79 C 363.60 401.71 361.74 402.29 361.46 404.03 M 380.23 447.23 C 373.39 451.42 366.74 457.03 364.38 465.01 C 360.28 475.99 363.21 488.73 356.86 498.98 C 349.83 510.49 334.48 513.06 327.53 524.58 C 322.90 533.39 322.09 543.55 320.08 553.15 C 319.38 555.75 316.25 555.96 314.16 555.06 C 313.20 553.03 312.73 550.53 310.69 549.27 C 302.31 543.16 289.82 541.65 281.25 548.20 C 272.22 555.28 267.89 566.90 266.89 578.03 C 266.33 588.04 268.17 599.07 275.37 606.56 C 284.94 616.10 298.94 619.16 311.98 620.00 C 315.26 620.10 319.25 620.89 320.77 624.21 C 322.78 627.71 320.16 632.74 316.13 633.08 C 308.03 633.66 299.88 633.01 291.79 633.68 C 288.01 642.36 282.61 650.26 276.23 657.23 C 256.97 678.77 229.33 693.31 200.28 694.69 C 200.31 703.24 200.23 711.79 200.27 720.34 C 200.84 720.36 201.98 720.40 202.54 720.42 C 204.26 712.59 204.37 704.40 206.87 696.74 C 208.00 694.07 212.74 695.04 212.54 698.06 C 212.90 705.72 210.40 713.13 209.65 720.71 C 249.99 723.25 290.13 730.44 328.57 743.02 C 331.90 732.28 335.63 721.68 339.25 711.05 C 340.02 708.81 341.23 706.15 343.91 705.87 C 348.89 704.95 353.96 704.49 358.89 703.26 C 374.44 699.79 388.79 691.02 398.71 678.52 C 411.12 663.03 417.17 643.44 419.80 624.02 C 422.73 603.31 420.56 582.39 420.20 561.60 C 417.51 563.78 412.78 563.41 411.40 559.91 C 409.24 554.24 409.71 547.98 409.54 542.02 C 409.80 537.64 409.39 532.86 411.57 528.90 C 413.00 526.13 416.41 526.52 418.99 526.88 C 417.79 510.78 416.80 494.64 414.69 478.61 C 403.49 489.54 394.51 502.41 384.72 514.54 C 383.49 516.08 381.40 518.23 379.36 516.59 C 377.67 515.50 378.10 513.36 379.18 512.00 C 383.51 505.19 388.77 499.03 393.67 492.63 C 399.73 484.99 405.84 477.16 413.80 471.39 C 411.49 458.54 409.86 445.41 405.33 433.10 C 396.81 437.52 388.45 442.26 380.23 447.23 M 254.00 464.76 C 253.45 466.32 254.00 466.86 255.67 466.39 C 256.21 464.81 255.66 464.27 254.00 464.76 M 332.33 468.33 C 331.10 469.15 330.52 470.44 330.97 471.90 C 332.68 473.07 334.56 471.71 335.18 470.03 C 335.56 468.30 333.55 467.12 332.33 468.33 M 212.43 577.78 C 215.08 577.77 217.03 575.43 218.13 573.23 C 215.45 570.94 210.61 574.96 212.43 577.78 M 231.11 579.02 C 231.37 582.32 234.07 577.38 231.11 579.02 Z" />
<path fill="#000000" opacity="1.00" d=" M 455.38 395.54 C 459.87 394.66 464.46 393.99 469.05 393.87 C 622.71 393.97 776.38 393.83 930.05 393.92 C 935.09 393.42 938.69 398.28 938.15 403.02 C 938.38 492.01 938.54 581.02 938.41 670.02 C 939.08 674.37 935.43 678.75 930.97 678.54 C 871.35 678.73 811.73 678.48 752.11 678.65 C 751.36 704.72 752.51 730.80 752.18 756.87 C 842.79 756.62 933.39 756.96 1024.00 756.72 L 1024.00 761.32 C 907.67 761.21 791.34 761.23 675.01 761.40 C 579.34 761.27 483.68 761.17 388.02 761.44 C 383.98 761.25 379.12 762.18 376.23 758.63 C 378.39 756.75 381.29 756.84 383.97 756.83 C 468.95 756.64 553.92 756.95 638.89 756.63 C 639.24 730.64 639.22 704.65 638.74 678.66 C 581.47 678.43 524.19 678.66 466.91 678.58 C 463.82 678.35 460.76 677.82 457.74 677.17 C 453.23 676.22 450.10 671.54 450.10 667.09 C 450.04 579.71 450.06 492.33 450.09 404.95 C 449.97 401.17 451.34 396.70 455.38 395.54 M 470.71 414.67 C 470.89 461.03 470.76 507.40 470.76 553.76 C 475.52 547.95 484.11 545.48 491.08 548.50 C 496.78 551.29 499.01 558.06 499.26 564.01 C 499.83 578.62 493.26 592.44 484.93 604.06 C 483.47 606.39 481.17 609.29 482.69 612.13 C 485.43 616.54 491.66 615.77 495.61 613.59 C 506.27 608.19 510.12 595.06 521.05 590.03 C 526.38 587.41 533.92 586.97 538.00 591.99 C 541.23 596.61 541.31 602.65 540.93 608.06 C 539.81 619.34 531.77 628.91 522.03 634.13 C 516.76 637.23 510.78 638.74 505.34 641.43 C 498.44 645.05 494.62 652.16 490.06 658.14 C 505.70 658.30 521.33 658.17 536.97 658.25 C 538.35 658.23 540.09 658.30 540.83 656.85 C 545.40 650.18 546.69 641.92 550.76 635.00 C 554.94 628.12 562.77 623.07 571.00 623.70 C 575.34 623.93 579.25 627.54 579.60 631.91 C 580.43 640.95 576.77 649.49 574.47 658.05 C 575.46 658.07 577.42 658.13 578.41 658.16 C 582.60 647.20 588.74 637.05 595.69 627.64 C 605.42 615.45 617.93 604.14 633.57 600.73 C 627.97 595.73 624.79 588.63 622.55 581.60 C 618.36 568.33 619.18 554.23 619.63 540.53 C 614.83 539.79 610.56 537.19 607.02 533.97 C 595.70 523.63 591.70 506.28 597.05 491.96 C 600.00 484.02 606.34 477.37 614.26 474.27 C 622.06 471.12 631.54 470.40 638.88 475.13 C 652.37 468.12 668.59 468.14 683.03 471.96 C 697.44 475.85 709.00 487.46 714.12 501.31 C 721.95 492.84 735.63 492.17 745.50 497.23 C 756.53 502.64 761.38 517.17 756.57 528.32 C 753.31 536.45 744.76 541.94 736.06 541.95 C 729.19 542.34 722.47 538.44 719.00 532.56 C 718.51 538.40 717.83 544.36 715.09 549.64 C 712.38 548.11 711.25 545.00 708.96 543.04 C 706.81 541.43 703.96 542.04 701.48 542.01 C 708.37 544.28 715.61 549.19 716.82 556.88 C 718.73 565.06 713.27 574.74 704.56 575.74 C 702.01 582.23 698.59 588.66 693.33 593.35 C 701.12 595.73 708.71 598.71 716.38 601.47 C 725.37 604.57 734.81 608.61 740.23 616.88 C 748.08 629.01 750.64 643.96 749.79 658.21 C 753.83 658.24 757.88 658.27 761.94 658.22 C 760.13 649.24 759.72 640.07 759.29 630.94 C 758.83 612.90 759.04 594.68 762.76 576.95 C 764.51 569.47 766.77 561.77 771.83 555.79 C 776.20 550.59 783.27 547.81 790.01 548.88 C 796.54 549.65 801.97 554.14 805.54 559.44 C 810.94 567.57 814.38 577.20 814.40 587.02 C 814.37 593.88 812.30 600.48 810.61 607.06 C 809.44 610.72 810.95 614.40 811.91 617.92 C 814.10 625.08 815.48 632.64 814.52 640.14 C 813.80 646.57 811.08 652.55 808.06 658.20 C 830.10 658.23 852.14 658.29 874.18 658.11 C 874.12 655.50 874.09 652.90 874.08 650.31 C 865.84 650.11 857.52 645.86 853.22 638.71 C 849.26 631.97 849.91 623.31 853.55 616.58 C 856.74 610.39 861.12 604.28 861.04 597.01 C 860.52 589.18 857.34 581.86 856.20 574.14 C 854.96 565.93 855.06 557.21 858.29 549.45 C 860.88 543.72 865.51 538.47 871.76 536.79 C 879.93 534.11 889.51 537.69 894.15 544.86 C 899.36 552.75 899.76 562.77 898.46 571.87 C 897.29 581.05 892.80 589.74 893.28 599.13 C 893.81 608.42 901.78 615.00 903.17 624.04 C 904.24 629.74 902.96 635.93 899.35 640.52 C 894.68 646.72 886.92 649.75 879.39 650.45 C 879.43 652.95 879.44 655.46 879.40 657.97 C 892.42 658.48 905.46 658.08 918.49 658.26 C 918.56 577.00 918.46 495.74 918.52 414.49 C 821.99 414.51 725.47 414.45 628.95 414.49 C 576.21 414.59 523.45 414.26 470.71 414.67 M 638.91 517.64 C 634.65 518.61 630.26 517.53 626.63 515.21 C 625.49 519.39 624.71 523.66 623.76 527.89 C 626.14 523.78 631.40 519.39 636.08 523.02 C 633.51 525.58 629.00 524.89 627.12 528.33 C 621.34 535.74 621.47 545.55 621.83 554.46 C 623.13 554.63 624.41 554.89 625.69 555.27 C 629.04 558.12 626.63 564.81 621.95 564.06 C 622.87 573.91 624.79 584.11 630.52 592.39 C 635.24 599.68 643.24 604.88 651.93 605.82 C 663.66 607.26 675.48 603.50 685.52 597.59 C 695.47 591.86 699.87 580.29 702.38 569.67 C 704.51 569.00 706.54 572.48 708.14 570.16 C 711.65 566.90 713.25 561.74 712.51 557.05 C 711.95 552.92 708.98 549.54 705.57 547.38 C 703.20 546.32 700.49 546.38 698.15 545.26 C 698.52 544.72 699.26 543.63 699.63 543.08 C 695.73 539.90 693.61 534.82 693.76 529.83 C 684.78 528.67 677.63 520.28 678.21 511.19 C 672.69 516.54 664.74 519.78 657.04 517.94 C 653.37 517.40 650.76 514.56 648.70 511.72 C 645.89 514.32 642.69 516.70 638.91 517.64 M 717.46 528.19 C 716.99 529.57 717.47 530.10 718.88 529.76 C 719.33 528.37 718.86 527.84 717.46 528.19 M 864.61 549.61 C 860.35 557.51 861.14 566.93 862.68 575.46 C 864.24 584.70 868.61 593.96 866.17 603.45 C 864.49 610.55 858.03 615.32 856.68 622.53 C 855.83 627.36 855.72 632.92 858.88 637.00 C 862.44 641.83 868.39 644.06 874.13 644.99 C 874.19 617.66 874.42 590.33 874.58 563.00 C 874.63 559.96 874.52 556.90 874.92 553.89 C 875.02 551.95 877.41 550.43 878.97 552.07 C 880.42 554.05 880.06 556.65 880.18 558.97 C 879.97 587.66 879.71 616.35 879.53 645.04 C 885.93 643.82 892.87 641.11 896.15 635.07 C 899.11 629.13 897.95 621.89 895.04 616.16 C 892.55 612.21 889.42 608.51 888.25 603.88 C 885.88 595.57 888.97 587.16 890.75 579.07 C 892.77 570.18 894.67 560.51 891.25 551.73 C 889.50 546.77 885.47 542.27 880.10 541.37 C 873.79 540.12 867.45 544.07 864.61 549.61 M 476.93 554.89 C 473.50 558.33 470.19 562.82 470.69 567.94 C 470.94 575.02 470.52 582.10 470.61 589.18 C 474.63 581.06 477.52 572.43 481.16 564.14 C 482.42 564.21 484.05 563.73 484.79 565.12 C 485.40 568.16 483.81 571.02 482.82 573.80 C 479.36 582.88 475.69 591.87 471.84 600.79 C 469.94 604.58 470.65 608.91 470.60 612.99 C 470.95 628.10 470.38 643.22 470.92 658.32 C 473.14 657.61 473.04 655.04 473.51 653.19 C 474.42 646.69 475.87 639.62 481.15 635.18 C 491.02 626.80 504.88 625.21 514.68 616.70 C 517.49 614.40 518.91 610.94 521.30 608.30 C 524.59 607.29 524.24 611.39 523.11 613.22 C 518.43 623.27 507.40 627.47 498.05 631.98 C 492.09 634.52 485.81 637.61 482.36 643.36 C 480.05 648.03 479.54 653.31 478.63 658.38 C 480.42 658.28 482.22 658.21 484.03 658.17 C 488.28 652.18 492.28 645.78 498.12 641.18 C 505.88 635.51 515.62 633.22 523.10 627.10 C 529.65 622.02 534.80 614.47 535.16 605.98 C 535.24 602.49 535.64 598.54 533.45 595.55 C 530.78 592.76 526.11 593.09 523.02 594.99 C 515.04 600.00 511.37 609.25 504.31 615.24 C 499.16 619.85 492.06 623.06 485.05 621.60 C 477.83 619.99 474.15 610.81 477.45 604.40 C 480.40 598.84 484.50 593.96 487.22 588.25 C 491.65 578.99 495.76 568.13 492.44 557.88 C 490.45 551.45 481.39 550.68 476.93 554.89 M 780.00 555.97 C 774.16 559.79 771.46 566.69 769.41 573.07 C 763.75 592.83 763.29 613.58 763.47 633.99 C 763.65 642.08 763.81 650.24 765.48 658.20 C 771.12 658.14 776.77 658.20 782.42 658.29 C 777.74 652.35 774.44 645.09 767.87 640.87 C 767.23 638.25 771.06 638.34 772.45 639.50 C 777.01 642.54 780.01 647.31 783.00 651.79 C 782.61 642.89 783.03 633.98 782.75 625.09 C 779.65 622.89 777.83 619.46 775.27 616.74 C 773.30 614.24 770.64 612.42 768.51 610.08 C 768.00 607.32 771.38 607.81 772.80 608.96 C 777.19 611.89 780.43 616.28 783.07 620.79 C 782.92 612.85 783.14 604.90 783.14 596.97 C 783.44 586.25 782.66 575.46 783.94 564.80 C 784.48 564.69 785.57 564.47 786.11 564.37 C 788.68 564.22 788.36 567.25 788.51 569.00 C 788.45 578.10 788.52 587.21 788.10 596.31 C 791.63 591.46 795.25 586.68 799.03 582.02 C 800.25 579.90 804.02 580.32 804.42 582.87 C 803.37 586.25 800.74 588.75 798.76 591.59 C 795.36 595.81 792.60 600.70 788.24 604.04 C 788.10 614.05 788.17 624.06 787.86 634.07 C 791.72 629.17 795.54 624.24 799.08 619.10 C 800.39 616.82 805.18 618.34 804.42 621.03 C 799.54 628.44 793.80 635.23 788.20 642.07 C 787.39 647.49 788.20 653.04 787.62 658.50 C 792.33 653.48 796.16 647.74 800.39 642.34 C 801.72 640.31 804.30 641.14 805.75 642.56 C 803.82 648.68 798.85 653.11 795.41 658.38 C 797.47 658.20 799.68 658.51 801.67 657.90 C 804.56 652.27 807.44 646.46 808.50 640.16 C 809.30 633.77 809.06 627.25 807.77 620.94 C 806.92 616.35 804.94 611.86 805.55 607.10 C 806.43 599.36 809.51 591.86 808.76 583.96 C 807.92 575.07 804.69 566.11 798.65 559.44 C 794.14 554.31 785.97 552.08 780.00 555.97 M 621.47 557.11 C 621.57 558.82 621.72 560.54 621.97 562.25 C 624.70 561.99 625.30 559.74 624.83 557.39 C 623.71 557.28 622.58 557.18 621.47 557.11 M 553.80 639.91 C 551.35 646.14 549.72 652.78 545.82 658.34 C 548.36 658.05 551.09 658.48 553.51 657.54 C 557.87 653.00 559.31 646.71 561.36 640.97 C 563.23 640.93 565.61 641.72 564.91 644.11 C 563.99 649.08 562.02 653.81 559.89 658.37 C 562.31 658.20 564.75 658.14 567.18 658.11 C 569.43 649.81 573.65 641.72 572.97 632.90 C 572.66 629.60 568.84 628.15 565.97 628.98 C 560.45 630.31 556.02 634.80 553.80 639.91 M 601.24 637.55 C 602.38 638.83 603.63 638.77 604.80 637.56 C 604.29 636.69 603.75 635.81 602.97 635.17 C 602.34 635.92 601.79 636.74 601.24 637.55 M 714.12 666.14 C 713.47 667.54 714.91 670.25 716.32 668.45 C 718.24 666.95 715.79 665.01 714.12 666.14 M 643.77 678.70 C 644.31 683.10 644.30 687.55 644.35 691.98 C 644.43 713.02 644.44 734.06 644.21 755.09 C 660.30 755.47 676.47 754.40 692.51 755.95 C 692.91 749.61 692.66 743.26 692.56 736.93 C 692.53 717.45 692.44 697.96 691.86 678.50 C 675.83 678.59 659.80 678.47 643.77 678.70 M 698.50 678.53 C 700.71 696.29 699.15 714.20 699.24 732.03 C 699.07 740.26 699.70 748.59 698.11 756.72 C 714.33 756.80 730.55 756.77 746.77 756.63 C 745.37 730.66 745.58 704.61 745.98 678.61 C 730.15 678.45 714.32 678.68 698.50 678.53 Z" />
<path fill="#000000" opacity="1.00" d=" M 851.02 509.06 C 853.12 508.49 854.31 510.61 854.38 512.41 C 854.75 516.73 855.27 521.21 854.32 525.48 C 854.02 527.65 850.59 528.04 849.93 525.96 C 848.81 522.44 849.33 518.66 849.24 515.03 C 849.43 513.01 848.98 510.29 851.02 509.06 Z" />
<path fill="#000000" opacity="1.00" d=" M 818.97 513.10 C 821.48 512.02 823.41 514.84 823.59 517.06 C 824.16 522.70 824.07 528.44 823.59 534.10 C 823.52 536.38 821.69 539.30 819.07 538.22 C 817.22 537.84 817.02 535.62 816.76 534.13 C 816.07 528.74 816.05 523.25 816.64 517.86 C 816.88 516.10 817.25 514.01 818.97 513.10 Z" />
<path fill="#000000" opacity="1.00" d=" M 296.43 551.61 C 299.19 550.26 303.04 551.85 303.54 555.02 C 303.69 557.64 301.09 558.92 299.29 560.24 C 288.07 567.31 282.86 582.34 286.78 594.93 C 287.69 597.36 287.84 600.86 284.81 601.78 C 281.14 603.43 278.63 599.25 277.70 596.31 C 272.64 579.61 280.45 559.29 296.43 551.61 Z" />
<path fill="#000000" opacity="1.00" d=" M 703.45 551.40 C 710.88 553.23 709.67 565.68 702.09 566.14 C 702.45 561.22 703.24 556.34 703.45 551.40 Z" />
<path fill="#000000" opacity="1.00" d=" M 862.24 616.45 C 868.60 615.48 871.59 623.25 872.31 628.34 C 869.24 628.86 867.06 626.75 865.70 624.30 C 864.24 621.85 862.15 619.46 862.24 616.45 Z" />
<path fill="#000000" opacity="1.00" d=" M 884.53 619.45 C 886.11 617.23 888.76 614.58 891.70 616.25 C 892.46 618.34 890.54 619.90 889.64 621.58 C 887.30 624.94 884.59 629.50 879.84 629.02 C 879.47 625.14 882.50 622.36 884.53 619.45 Z" />
<path fill="#000000" opacity="1.00" d=" M 665.45 692.62 C 671.82 690.78 678.61 696.50 678.37 703.02 C 678.66 708.59 673.67 713.79 668.05 713.55 C 662.27 713.87 657.13 708.79 657.37 703.01 C 657.27 698.21 660.82 693.74 665.45 692.62 Z" />
<path fill="#000000" opacity="1.00" d=" M 257.95 704.85 C 261.97 702.68 266.98 702.55 271.31 703.81 C 273.29 704.32 274.19 706.05 274.05 708.02 C 269.65 709.03 265.07 707.26 260.74 708.67 C 259.30 708.91 257.66 709.78 256.27 708.94 C 255.07 707.45 256.54 705.51 257.95 704.85 Z" />
<path fill="#000000" opacity="1.00" d=" M 305.26 717.97 C 307.33 714.37 312.34 715.22 315.62 716.41 C 318.37 717.56 321.95 720.54 320.16 723.83 C 318.09 724.97 316.55 723.06 315.01 722.04 C 312.09 719.85 307.86 720.73 305.26 717.97 Z" />
<path fill="#000000" opacity="1.00" d=" M 258.60 717.74 C 262.34 716.80 266.46 716.43 270.14 717.84 C 271.49 718.14 272.44 720.96 270.47 721.22 C 265.68 721.71 260.85 722.20 256.05 722.45 C 253.95 720.56 256.33 717.77 258.60 717.74 Z" />
<path fill="#000000" opacity="1.00" d=" M 435.87 833.83 C 438.72 831.65 441.84 828.89 445.73 829.79 C 446.17 831.80 446.36 834.05 444.46 835.41 C 435.67 843.28 426.92 851.23 418.75 859.76 C 394.88 884.59 372.75 911.38 355.12 941.04 C 340.53 966.41 328.96 994.46 327.55 1024.00 L 322.24 1024.00 C 322.37 995.67 332.44 968.37 345.54 943.61 C 361.13 914.74 381.76 888.93 403.75 864.70 C 413.86 853.83 424.18 843.04 435.87 833.83 Z" />
</g>
<g id="Group-000000" fill="#000000">
<path fill="rgba(0,0,0,0)" opacity="1.00" d=" M 293.44 372.35 C 296.57 370.36 298.76 367.18 302.08 365.44 C 302.49 366.11 303.31 367.44 303.72 368.11 C 301.51 370.88 297.80 371.73 295.54 374.44 C 294.29 375.57 293.14 377.60 291.15 376.88 C 290.06 374.86 291.93 373.35 293.44 372.35 Z" />
<path fill="rgba(0,0,0,0)" opacity="1.00" d=" M 361.46 404.03 C 361.74 402.29 363.60 401.71 364.84 400.79 C 366.34 401.82 367.91 403.07 366.99 405.08 C 366.12 404.77 365.25 404.47 364.39 404.17 C 363.65 404.47 360.88 405.87 361.46 404.03 Z" />
</g>
<g id="Group-000000" fill="#000000">
<path fill="rgba(0,0,0,0)" opacity="1.00" d=" M 110.97 383.97 C 116.57 382.41 122.41 384.21 127.66 386.21 C 131.51 387.58 135.14 389.59 138.22 392.30 C 131.86 391.52 125.82 389.32 119.79 387.27 C 116.83 386.23 113.68 385.61 110.97 383.97 Z" />
</g>
<g id="Group-000000" fill="#000000">
<path fill="rgba(0,0,0,0)" opacity="1.00" d=" M 470.71 414.67 C 523.45 414.26 576.21 414.59 628.95 414.49 C 725.47 414.45 821.99 414.51 918.52 414.49 C 918.46 495.74 918.56 577.00 918.49 658.26 C 905.46 658.08 892.42 658.48 879.40 657.97 C 879.44 655.46 879.43 652.95 879.39 650.45 C 886.92 649.75 894.68 646.72 899.35 640.52 C 902.96 635.93 904.24 629.74 903.17 624.04 C 901.78 615.00 893.81 608.42 893.28 599.13 C 892.80 589.74 897.29 581.05 898.46 571.87 C 899.76 562.77 899.36 552.75 894.15 544.86 C 889.51 537.69 879.93 534.11 871.76 536.79 C 865.51 538.47 860.88 543.72 858.29 549.45 C 855.06 557.21 854.96 565.93 856.20 574.14 C 857.34 581.86 860.52 589.18 861.04 597.01 C 861.12 604.28 856.74 610.39 853.55 616.58 C 849.91 623.31 849.26 631.97 853.22 638.71 C 857.52 645.86 865.84 650.11 874.08 650.31 C 874.09 652.90 874.12 655.50 874.18 658.11 C 852.14 658.29 830.10 658.23 808.06 658.20 C 811.08 652.55 813.80 646.57 814.52 640.14 C 815.48 632.64 814.10 625.08 811.91 617.92 C 810.95 614.40 809.44 610.72 810.61 607.06 C 812.30 600.48 814.37 593.88 814.40 587.02 C 814.38 577.20 810.94 567.57 805.54 559.44 C 801.97 554.14 796.54 549.65 790.01 548.88 C 783.27 547.81 776.20 550.59 771.83 555.79 C 766.77 561.77 764.51 569.47 762.76 576.95 C 759.04 594.68 758.83 612.90 759.29 630.94 C 759.72 640.07 760.13 649.24 761.94 658.22 C 757.88 658.27 753.83 658.24 749.79 658.21 C 750.64 643.96 748.08 629.01 740.23 616.88 C 734.81 608.61 725.37 604.57 716.38 601.47 C 708.71 598.71 701.12 595.73 693.33 593.35 C 698.59 588.66 702.01 582.23 704.56 575.74 C 713.27 574.74 718.73 565.06 716.82 556.88 C 715.61 549.19 708.37 544.28 701.48 542.01 C 703.96 542.04 706.81 541.43 708.96 543.04 C 711.25 545.00 712.38 548.11 715.09 549.64 C 717.83 544.36 718.51 538.40 719.00 532.56 C 722.47 538.44 729.19 542.34 736.06 541.95 C 744.76 541.94 753.31 536.45 756.57 528.32 C 761.38 517.17 756.53 502.64 745.50 497.23 C 735.63 492.17 721.95 492.84 714.12 501.31 C 709.00 487.46 697.44 475.85 683.03 471.96 C 668.59 468.14 652.37 468.12 638.88 475.13 C 631.54 470.40 622.06 471.12 614.26 474.27 C 606.34 477.37 600.00 484.02 597.05 491.96 C 591.70 506.28 595.70 523.63 607.02 533.97 C 610.56 537.19 614.83 539.79 619.63 540.53 C 619.18 554.23 618.36 568.33 622.55 581.60 C 624.79 588.63 627.97 595.73 633.57 600.73 C 617.93 604.14 605.42 615.45 595.69 627.64 C 588.74 637.05 582.60 647.20 578.41 658.16 C 577.42 658.13 575.46 658.07 574.47 658.05 C 576.77 649.49 580.43 640.95 579.60 631.91 C 579.25 627.54 575.34 623.93 571.00 623.70 C 562.77 623.07 554.94 628.12 550.76 635.00 C 546.69 641.92 545.40 650.18 540.83 656.85 C 540.09 658.30 538.35 658.23 536.97 658.25 C 521.33 658.17 505.70 658.30 490.06 658.14 C 494.62 652.16 498.44 645.05 505.34 641.43 C 510.78 638.74 516.76 637.23 522.03 634.13 C 531.77 628.91 539.81 619.34 540.93 608.06 C 541.31 602.65 541.23 596.61 538.00 591.99 C 533.92 586.97 526.38 587.41 521.05 590.03 C 510.12 595.06 506.27 608.19 495.61 613.59 C 491.66 615.77 485.43 616.54 482.69 612.13 C 481.17 609.29 483.47 606.39 484.93 604.06 C 493.26 592.44 499.83 578.62 499.26 564.01 C 499.01 558.06 496.78 551.29 491.08 548.50 C 484.11 545.48 475.52 547.95 470.76 553.76 C 470.76 507.40 470.89 461.03 470.71 414.67 M 816.34 433.04 C 815.44 434.41 814.44 435.75 812.93 436.49 C 812.54 445.95 812.81 455.43 812.77 464.90 C 812.54 467.26 814.57 469.58 817.02 469.31 C 829.70 469.41 842.38 469.26 855.06 469.45 C 859.33 469.49 863.63 469.70 867.87 469.04 C 868.95 465.88 873.42 464.67 872.94 461.03 C 872.77 453.08 873.15 445.10 872.71 437.17 C 871.70 435.33 869.32 434.57 867.91 432.99 C 850.72 432.82 833.52 432.65 816.34 433.04 M 851.02 509.06 C 848.98 510.29 849.43 513.01 849.24 515.03 C 849.33 518.66 848.81 522.44 849.93 525.96 C 850.59 528.04 854.02 527.65 854.32 525.48 C 855.27 521.21 854.75 516.73 854.38 512.41 C 854.31 510.61 853.12 508.49 851.02 509.06 M 818.97 513.10 C 817.25 514.01 816.88 516.10 816.64 517.86 C 816.05 523.25 816.07 528.74 816.76 534.13 C 817.02 535.62 817.22 537.84 819.07 538.22 C 821.69 539.30 823.52 536.38 823.59 534.10 C 824.07 528.44 824.16 522.70 823.59 517.06 C 823.41 514.84 821.48 512.02 818.97 513.10 M 548.12 569.21 C 543.83 571.34 538.96 573.60 536.84 578.19 C 539.25 577.96 541.13 576.36 543.16 575.20 C 547.86 572.29 552.91 569.98 558.17 568.27 C 561.44 567.08 565.00 566.46 567.87 564.37 C 560.92 563.27 554.32 566.53 548.12 569.21 M 554.89 582.74 C 552.35 584.67 548.61 586.57 548.86 590.28 C 552.39 588.44 555.19 585.49 558.81 583.79 C 562.37 581.79 566.52 581.11 569.96 578.86 C 564.67 577.39 559.35 580.11 554.89 582.74 Z" />
<path fill="rgba(0,0,0,0)" opacity="1.00" d=" M 380.23 447.23 C 388.45 442.26 396.81 437.52 405.33 433.10 C 409.86 445.41 411.49 458.54 413.80 471.39 C 405.84 477.16 399.73 484.99 393.67 492.63 C 388.77 499.03 383.51 505.19 379.18 512.00 C 378.10 513.36 377.67 515.50 379.36 516.59 C 381.40 518.23 383.49 516.08 384.72 514.54 C 394.51 502.41 403.49 489.54 414.69 478.61 C 416.80 494.64 417.79 510.78 418.99 526.88 C 416.41 526.52 413.00 526.13 411.57 528.90 C 409.39 532.86 409.80 537.64 409.54 542.02 C 409.71 547.98 409.24 554.24 411.40 559.91 C 412.78 563.41 417.51 563.78 420.20 561.60 C 420.56 582.39 422.73 603.31 419.80 624.02 C 417.17 643.44 411.12 663.03 398.71 678.52 C 388.79 691.02 374.44 699.79 358.89 703.26 C 353.96 704.49 348.89 704.95 343.91 705.87 C 341.23 706.15 340.02 708.81 339.25 711.05 C 335.63 721.68 331.90 732.28 328.57 743.02 C 290.13 730.44 249.99 723.25 209.65 720.71 C 210.40 713.13 212.90 705.72 212.54 698.06 C 212.74 695.04 208.00 694.07 206.87 696.74 C 204.37 704.40 204.26 712.59 202.54 720.42 C 201.98 720.40 200.84 720.36 200.27 720.34 C 200.23 711.79 200.31 703.24 200.28 694.69 C 229.33 693.31 256.97 678.77 276.23 657.23 C 282.61 650.26 288.01 642.36 291.79 633.68 C 299.88 633.01 308.03 633.66 316.13 633.08 C 320.16 632.74 322.78 627.71 320.77 624.21 C 319.25 620.89 315.26 620.10 311.98 620.00 C 298.94 619.16 284.94 616.10 275.37 606.56 C 268.17 599.07 266.33 588.04 266.89 578.03 C 267.89 566.90 272.22 555.28 281.25 548.20 C 289.82 541.65 302.31 543.16 310.69 549.27 C 312.73 550.53 313.20 553.03 314.16 555.06 C 316.25 555.96 319.38 555.75 320.08 553.15 C 322.09 543.55 322.90 533.39 327.53 524.58 C 334.48 513.06 349.83 510.49 356.86 498.98 C 363.21 488.73 360.28 475.99 364.38 465.01 C 366.74 457.03 373.39 451.42 380.23 447.23 M 296.43 551.61 C 280.45 559.29 272.64 579.61 277.70 596.31 C 278.63 599.25 281.14 603.43 284.81 601.78 C 287.84 600.86 287.69 597.36 286.78 594.93 C 282.86 582.34 288.07 567.31 299.29 560.24 C 301.09 558.92 303.69 557.64 303.54 555.02 C 303.04 551.85 299.19 550.26 296.43 551.61 M 306.20 575.20 C 300.72 578.08 297.39 585.05 299.10 591.10 C 300.22 594.43 303.27 597.33 306.92 597.44 C 309.09 597.56 310.43 595.25 309.74 593.33 C 308.20 591.34 305.32 589.88 305.70 586.95 C 305.34 582.97 309.90 581.43 310.97 578.07 C 310.92 575.66 308.39 573.91 306.20 575.20 M 381.40 590.30 C 380.16 591.14 377.99 592.24 378.85 594.11 C 380.87 594.35 382.61 593.16 384.44 592.55 C 387.72 591.10 391.33 593.84 392.44 596.89 C 394.57 603.19 392.49 611.18 386.61 614.74 C 383.19 616.91 378.33 616.46 375.65 613.31 C 371.78 609.62 372.56 603.83 372.41 599.01 C 371.90 599.30 370.88 599.86 370.37 600.15 C 368.82 605.78 370.06 612.44 374.41 616.56 C 378.84 620.36 385.81 619.88 390.23 616.32 C 396.94 610.90 398.69 600.15 393.88 592.96 C 391.24 588.97 385.44 587.76 381.40 590.30 M 257.95 704.85 C 256.54 705.51 255.07 707.45 256.27 708.94 C 257.66 709.78 259.30 708.91 260.74 708.67 C 265.07 707.26 269.65 709.03 274.05 708.02 C 274.19 706.05 273.29 704.32 271.31 703.81 C 266.98 702.55 261.97 702.68 257.95 704.85 M 286.55 708.29 C 284.89 708.79 284.76 710.48 284.46 711.92 C 289.86 711.40 294.93 713.40 299.94 715.09 C 301.08 713.99 301.62 711.89 300.21 710.79 C 296.52 707.71 291.08 706.90 286.55 708.29 M 276.89 717.15 C 276.93 718.28 276.97 719.41 277.03 720.56 C 282.44 720.83 287.85 721.13 293.25 721.64 C 293.67 718.08 290.09 716.43 287.14 716.13 C 283.72 715.89 280.05 715.49 276.89 717.15 M 305.26 717.97 C 307.86 720.73 312.09 719.85 315.01 722.04 C 316.55 723.06 318.09 724.97 320.16 723.83 C 321.95 720.54 318.37 717.56 315.62 716.41 C 312.34 715.22 307.33 714.37 305.26 717.97 M 258.60 717.74 C 256.33 717.77 253.95 720.56 256.05 722.45 C 260.85 722.20 265.68 721.71 270.47 721.22 C 272.44 720.96 271.49 718.14 270.14 717.84 C 266.46 716.43 262.34 716.80 258.60 717.74 M 294.16 723.26 C 294.40 724.40 294.06 726.03 295.40 726.61 C 297.89 727.42 300.49 727.76 303.00 728.51 C 305.39 729.24 307.60 730.72 310.19 730.66 C 310.10 729.81 309.91 728.12 309.82 727.27 C 305.65 723.62 299.59 721.77 294.16 723.26 Z" />
<path fill="rgba(0,0,0,0)" opacity="1.00" d=" M 698.50 678.53 C 714.32 678.68 730.15 678.45 745.98 678.61 C 745.58 704.61 745.37 730.66 746.77 756.63 C 730.55 756.77 714.33 756.80 698.11 756.72 C 699.70 748.59 699.07 740.26 699.24 732.03 C 699.15 714.20 700.71 696.29 698.50 678.53 Z" />
</g>
<g id="Group-000000" fill="#000000">
<path fill="#000000" opacity="1.00" d=" M 816.34 433.04 C 833.52 432.65 850.72 432.82 867.91 432.99 C 869.32 434.57 871.70 435.33 872.71 437.17 C 873.15 445.10 872.77 453.08 872.94 461.03 C 873.42 464.67 868.95 465.88 867.87 469.04 C 863.63 469.70 859.33 469.49 855.06 469.45 C 842.38 469.26 829.70 469.41 817.02 469.31 C 814.57 469.58 812.54 467.26 812.77 464.90 C 812.81 455.43 812.54 445.95 812.93 436.49 C 814.44 435.75 815.44 434.41 816.34 433.04 M 816.39 437.25 C 816.41 446.73 816.26 456.21 816.50 465.68 C 833.00 465.71 849.52 466.37 866.01 465.98 L 866.72 464.79 C 866.56 456.12 866.37 447.43 866.81 438.78 C 866.66 438.40 866.36 437.63 866.20 437.25 C 854.49 437.01 842.77 437.08 831.05 437.14 C 826.16 437.09 821.26 436.51 816.39 437.25 Z" />
</g>
<g id="Group-000000" fill="#000000">
<path fill="#000000" opacity="1.00" d=" M 816.39 437.25 C 821.26 436.51 826.16 437.09 831.05 437.14 C 842.77 437.08 854.49 437.01 866.20 437.25 C 866.36 437.63 866.66 438.40 866.81 438.78 C 858.88 438.26 850.92 437.65 842.98 438.24 C 834.89 438.65 826.67 437.42 818.72 439.50 C 818.29 447.61 817.82 455.73 818.03 463.85 C 834.21 465.44 850.49 464.27 866.72 464.79 L 866.01 465.98 C 849.52 466.37 833.00 465.71 816.50 465.68 C 816.26 456.21 816.41 446.73 816.39 437.25 Z" />
</g>
<g id="Group-000000" fill="#000000">
<path fill="#000000" opacity="1.00" d=" M 818.72 439.50 C 826.67 437.42 834.89 438.65 842.98 438.24 C 850.92 437.65 858.88 438.26 866.81 438.78 C 866.37 447.43 866.56 456.12 866.72 464.79 C 850.49 464.27 834.21 465.44 818.03 463.85 C 817.82 455.73 818.29 447.61 818.72 439.50 M 835.88 442.99 C 835.48 448.71 835.91 454.44 835.72 460.17 C 840.69 459.04 844.17 454.87 848.65 452.63 C 850.34 452.24 850.08 450.06 848.61 449.59 C 844.36 447.41 840.52 444.31 835.88 442.99 Z" />
</g>
<g id="Group-000000" fill="#000000">
<path fill="rgba(0,0,0,0)" opacity="1.00" d=" M 835.88 442.99 C 840.52 444.31 844.36 447.41 848.61 449.59 C 850.08 450.06 850.34 452.24 848.65 452.63 C 844.17 454.87 840.69 459.04 835.72 460.17 C 835.91 454.44 835.48 448.71 835.88 442.99 Z" />
</g>
<g id="Group-000000" fill="#000000">
<path fill="rgba(0,0,0,0)" opacity="1.00" d=" M 254.00 464.76 C 255.66 464.27 256.21 464.81 255.67 466.39 C 254.00 466.86 253.45 466.32 254.00 464.76 Z" />
<path fill="rgba(0,0,0,0)" opacity="1.00" d=" M 332.33 468.33 C 333.55 467.12 335.56 468.30 335.18 470.03 C 334.56 471.71 332.68 473.07 330.97 471.90 C 330.52 470.44 331.10 469.15 332.33 468.33 Z" />
<path fill="rgba(0,0,0,0)" opacity="1.00" d=" M 714.12 666.14 C 715.79 665.01 718.24 666.95 716.32 668.45 C 714.91 670.25 713.47 667.54 714.12 666.14 Z" />
</g>
<g id="Group-000000" fill="#000000">
<path fill="rgba(0,0,0,0)" opacity="1.00" d=" M 638.91 517.64 C 642.69 516.70 645.89 514.32 648.70 511.72 C 650.76 514.56 653.37 517.40 657.04 517.94 C 664.74 519.78 672.69 516.54 678.21 511.19 C 677.63 520.28 684.78 528.67 693.76 529.83 C 693.61 534.82 695.73 539.90 699.63 543.08 C 699.26 543.63 698.52 544.72 698.15 545.26 C 700.49 546.38 703.20 546.32 705.57 547.38 C 708.98 549.54 711.95 552.92 712.51 557.05 C 713.25 561.74 711.65 566.90 708.14 570.16 C 706.54 572.48 704.51 569.00 702.38 569.67 C 699.87 580.29 695.47 591.86 685.52 597.59 C 675.48 603.50 663.66 607.26 651.93 605.82 C 643.24 604.88 635.24 599.68 630.52 592.39 C 624.79 584.11 622.87 573.91 621.95 564.06 C 626.63 564.81 629.04 558.12 625.69 555.27 C 624.41 554.89 623.13 554.63 621.83 554.46 C 621.47 545.55 621.34 535.74 627.12 528.33 C 629.00 524.89 633.51 525.58 636.08 523.02 C 631.40 519.39 626.14 523.78 623.76 527.89 C 624.71 523.66 625.49 519.39 626.63 515.21 C 630.26 517.53 634.65 518.61 638.91 517.64 M 650.41 517.89 C 650.58 518.60 650.92 520.02 651.09 520.73 C 654.85 522.19 658.97 522.55 662.63 524.33 C 665.94 525.71 668.65 528.12 671.81 529.76 C 674.35 529.06 672.14 526.72 671.26 525.69 C 665.72 520.51 658.04 517.39 650.41 517.89 M 627.40 545.48 C 625.89 545.76 624.51 547.82 625.81 549.09 C 627.47 551.40 632.34 552.25 633.56 549.10 C 633.97 545.91 629.92 544.32 627.40 545.48 M 666.44 546.54 C 664.95 546.96 663.31 548.27 663.69 550.01 C 665.02 554.10 673.73 552.77 672.10 548.10 C 670.70 546.55 668.43 545.80 666.44 546.54 M 645.18 549.89 C 644.46 553.49 643.05 556.86 641.23 560.04 C 640.39 561.77 640.99 562.70 643.04 562.83 C 645.25 560.32 646.77 557.19 647.51 553.93 C 647.96 552.11 646.65 550.66 645.18 549.89 M 703.45 551.40 C 703.24 556.34 702.45 561.22 702.09 566.14 C 709.67 565.68 710.88 553.23 703.45 551.40 M 674.33 557.42 C 670.65 559.12 670.16 565.16 674.07 566.86 C 677.78 569.18 683.27 565.22 681.96 560.91 C 681.38 557.49 677.25 556.10 674.33 557.42 M 646.34 571.27 C 644.68 573.42 644.46 576.38 645.19 578.93 C 646.85 582.70 653.27 580.95 653.13 576.97 C 653.57 573.57 649.88 568.56 646.34 571.27 Z" />
<path fill="rgba(0,0,0,0)" opacity="1.00" d=" M 643.77 678.70 C 659.80 678.47 675.83 678.59 691.86 678.50 C 692.44 697.96 692.53 717.45 692.56 736.93 C 692.66 743.26 692.91 749.61 692.51 755.95 C 676.47 754.40 660.30 755.47 644.21 755.09 C 644.44 734.06 644.43 713.02 644.35 691.98 C 644.30 687.55 644.31 683.10 643.77 678.70 M 665.45 692.62 C 660.82 693.74 657.27 698.21 657.37 703.01 C 657.13 708.79 662.27 713.87 668.05 713.55 C 673.67 713.79 678.66 708.59 678.37 703.02 C 678.61 696.50 671.82 690.78 665.45 692.62 Z" />
</g>
<g id="Group-000000" fill="#000000">
<path fill="#000000" opacity="1.00" d=" M 650.41 517.89 C 658.04 517.39 665.72 520.51 671.26 525.69 C 672.14 526.72 674.35 529.06 671.81 529.76 C 668.65 528.12 665.94 525.71 662.63 524.33 C 658.97 522.55 654.85 522.19 651.09 520.73 C 650.92 520.02 650.58 518.60 650.41 517.89 Z" />
</g>
<g id="Group-000000" fill="#000000">
<path fill="#000000" opacity="1.00" d=" M 717.46 528.19 C 718.86 527.84 719.33 528.37 718.88 529.76 C 717.47 530.10 716.99 529.57 717.46 528.19 Z" />
</g>
<g id="Group-000000" fill="#000000">
<path fill="rgba(0,0,0,0)" opacity="1.00" d=" M 864.61 549.61 C 867.45 544.07 873.79 540.12 880.10 541.37 C 885.47 542.27 889.50 546.77 891.25 551.73 C 894.67 560.51 892.77 570.18 890.75 579.07 C 888.97 587.16 885.88 595.57 888.25 603.88 C 889.42 608.51 892.55 612.21 895.04 616.16 C 897.95 621.89 899.11 629.13 896.15 635.07 C 892.87 641.11 885.93 643.82 879.53 645.04 C 879.71 616.35 879.97 587.66 880.18 558.97 C 880.06 556.65 880.42 554.05 878.97 552.07 C 877.41 550.43 875.02 551.95 874.92 553.89 C 874.52 556.90 874.63 559.96 874.58 563.00 C 874.42 590.33 874.19 617.66 874.13 644.99 C 868.39 644.06 862.44 641.83 858.88 637.00 C 855.72 632.92 855.83 627.36 856.68 622.53 C 858.03 615.32 864.49 610.55 866.17 603.45 C 868.61 593.96 864.24 584.70 862.68 575.46 C 861.14 566.93 860.35 557.51 864.61 549.61 M 862.24 616.45 C 862.15 619.46 864.24 621.85 865.70 624.30 C 867.06 626.75 869.24 628.86 872.31 628.34 C 871.59 623.25 868.60 615.48 862.24 616.45 M 884.53 619.45 C 882.50 622.36 879.47 625.14 879.84 629.02 C 884.59 629.50 887.30 624.94 889.64 621.58 C 890.54 619.90 892.46 618.34 891.70 616.25 C 888.76 614.58 886.11 617.23 884.53 619.45 Z" />
<path fill="rgba(0,0,0,0)" opacity="1.00" d=" M 212.43 577.78 C 210.61 574.96 215.45 570.94 218.13 573.23 C 217.03 575.43 215.08 577.77 212.43 577.78 Z" />
</g>
<g id="Group-000000" fill="#000000">
<path fill="#000000" opacity="1.00" d=" M 627.40 545.48 C 629.92 544.32 633.97 545.91 633.56 549.10 C 632.34 552.25 627.47 551.40 625.81 549.09 C 624.51 547.82 625.89 545.76 627.40 545.48 Z" />
</g>
<g id="Group-000000" fill="#000000">
<path fill="#000000" opacity="1.00" d=" M 666.44 546.54 C 668.43 545.80 670.70 546.55 672.10 548.10 C 673.73 552.77 665.02 554.10 663.69 550.01 C 663.31 548.27 664.95 546.96 666.44 546.54 Z" />
<path fill="#000000" opacity="1.00" d=" M 674.33 557.42 C 677.25 556.10 681.38 557.49 681.96 560.91 C 683.27 565.22 677.78 569.18 674.07 566.86 C 670.16 565.16 670.65 559.12 674.33 557.42 M 674.32 559.53 C 673.57 560.40 672.73 561.72 673.35 562.90 C 673.83 565.81 678.57 566.22 679.67 563.51 C 681.69 560.42 676.73 557.16 674.32 559.53 Z" />
<path fill="#000000" opacity="1.00" d=" M 646.34 571.27 C 649.88 568.56 653.57 573.57 653.13 576.97 C 653.27 580.95 646.85 582.70 645.19 578.93 C 644.46 576.38 644.68 573.42 646.34 571.27 M 647.51 573.37 C 646.08 575.07 646.53 579.96 649.53 578.69 C 652.95 577.78 650.53 570.53 647.51 573.37 Z" />
</g>
<g id="Group-000000" fill="#000000">
<path fill="#000000" opacity="1.00" d=" M 645.18 549.89 C 646.65 550.66 647.96 552.11 647.51 553.93 C 646.77 557.19 645.25 560.32 643.04 562.83 C 640.99 562.70 640.39 561.77 641.23 560.04 C 643.05 556.86 644.46 553.49 645.18 549.89 Z" />
</g>
<g id="Group-000000" fill="#000000">
<path fill="rgba(0,0,0,0)" opacity="1.00" d=" M 476.93 554.89 C 481.39 550.68 490.45 551.45 492.44 557.88 C 495.76 568.13 491.65 578.99 487.22 588.25 C 484.50 593.96 480.40 598.84 477.45 604.40 C 474.15 610.81 477.83 619.99 485.05 621.60 C 492.06 623.06 499.16 619.85 504.31 615.24 C 511.37 609.25 515.04 600.00 523.02 594.99 C 526.11 593.09 530.78 592.76 533.45 595.55 C 535.64 598.54 535.24 602.49 535.16 605.98 C 534.80 614.47 529.65 622.02 523.10 627.10 C 515.62 633.22 505.88 635.51 498.12 641.18 C 492.28 645.78 488.28 652.18 484.03 658.17 C 482.22 658.21 480.42 658.28 478.63 658.38 C 479.54 653.31 480.05 648.03 482.36 643.36 C 485.81 637.61 492.09 634.52 498.05 631.98 C 507.40 627.47 518.43 623.27 523.11 613.22 C 524.24 611.39 524.59 607.29 521.30 608.30 C 518.91 610.94 517.49 614.40 514.68 616.70 C 504.88 625.21 491.02 626.80 481.15 635.18 C 475.87 639.62 474.42 646.69 473.51 653.19 C 473.04 655.04 473.14 657.61 470.92 658.32 C 470.38 643.22 470.95 628.10 470.60 612.99 C 470.65 608.91 469.94 604.58 471.84 600.79 C 475.69 591.87 479.36 582.88 482.82 573.80 C 483.81 571.02 485.40 568.16 484.79 565.12 C 484.05 563.73 482.42 564.21 481.16 564.14 C 477.52 572.43 474.63 581.06 470.61 589.18 C 470.52 582.10 470.94 575.02 470.69 567.94 C 470.19 562.82 473.50 558.33 476.93 554.89 Z" />
<path fill="rgba(0,0,0,0)" opacity="1.00" d=" M 780.00 555.97 C 785.97 552.08 794.14 554.31 798.65 559.44 C 804.69 566.11 807.92 575.07 808.76 583.96 C 809.51 591.86 806.43 599.36 805.55 607.10 C 804.94 611.86 806.92 616.35 807.77 620.94 C 809.06 627.25 809.30 633.77 808.50 640.16 C 807.44 646.46 804.56 652.27 801.67 657.90 C 799.68 658.51 797.47 658.20 795.41 658.38 C 798.85 653.11 803.82 648.68 805.75 642.56 C 804.30 641.14 801.72 640.31 800.39 642.34 C 796.16 647.74 792.33 653.48 787.62 658.50 C 788.20 653.04 787.39 647.49 788.20 642.07 C 793.80 635.23 799.54 628.44 804.42 621.03 C 805.18 618.34 800.39 616.82 799.08 619.10 C 795.54 624.24 791.72 629.17 787.86 634.07 C 788.17 624.06 788.10 614.05 788.24 604.04 C 792.60 600.70 795.36 595.81 798.76 591.59 C 800.74 588.75 803.37 586.25 804.42 582.87 C 804.02 580.32 800.25 579.90 799.03 582.02 C 795.25 586.68 791.63 591.46 788.10 596.31 C 788.52 587.21 788.45 578.10 788.51 569.00 C 788.36 567.25 788.68 564.22 786.11 564.37 C 785.57 564.47 784.48 564.69 783.94 564.80 C 782.66 575.46 783.44 586.25 783.14 596.97 C 783.14 604.90 782.92 612.85 783.07 620.79 C 780.43 616.28 777.19 611.89 772.80 608.96 C 771.38 607.81 768.00 607.32 768.51 610.08 C 770.64 612.42 773.30 614.24 775.27 616.74 C 777.83 619.46 779.65 622.89 782.75 625.09 C 783.03 633.98 782.61 642.89 783.00 651.79 C 780.01 647.31 777.01 642.54 772.45 639.50 C 771.06 638.34 767.23 638.25 767.87 640.87 C 774.44 645.09 777.74 652.35 782.42 658.29 C 776.77 658.20 771.12 658.14 765.48 658.20 C 763.81 650.24 763.65 642.08 763.47 633.99 C 763.29 613.58 763.75 592.83 769.41 573.07 C 771.46 566.69 774.16 559.79 780.00 555.97 Z" />
<path fill="rgba(0,0,0,0)" opacity="1.00" d=" M 553.80 639.91 C 556.02 634.80 560.45 630.31 565.97 628.98 C 568.84 628.15 572.66 629.60 572.97 632.90 C 573.65 641.72 569.43 649.81 567.18 658.11 C 564.75 658.14 562.31 658.20 559.89 658.37 C 562.02 653.81 563.99 649.08 564.91 644.11 C 565.61 641.72 563.23 640.93 561.36 640.97 C 559.31 646.71 557.87 653.00 553.51 657.54 C 551.09 658.48 548.36 658.05 545.82 658.34 C 549.72 652.78 551.35 646.14 553.80 639.91 Z" />
</g>
<g id="Group-000000" fill="#000000">
<path fill="rgba(0,0,0,0)" opacity="1.00" d=" M 621.47 557.11 C 622.58 557.18 623.71 557.28 624.83 557.39 C 625.30 559.74 624.70 561.99 621.97 562.25 C 621.72 560.54 621.57 558.82 621.47 557.11 Z" />
</g>
<g id="Group-000000" fill="#000000">
<path fill="rgba(0,0,0,0)" opacity="1.00" d=" M 674.32 559.53 C 676.73 557.16 681.69 560.42 679.67 563.51 C 678.57 566.22 673.83 565.81 673.35 562.90 C 672.73 561.72 673.57 560.40 674.32 559.53 Z" />
</g>
<g id="Group-000000" fill="#000000">
<path fill="#000000" opacity="1.00" d=" M 548.12 569.21 C 554.32 566.53 560.92 563.27 567.87 564.37 C 565.00 566.46 561.44 567.08 558.17 568.27 C 552.91 569.98 547.86 572.29 543.16 575.20 C 541.13 576.36 539.25 577.96 536.84 578.19 C 538.96 573.60 543.83 571.34 548.12 569.21 Z" />
</g>
<g id="Group-000000" fill="#000000">
<path fill="rgba(0,0,0,0)" opacity="1.00" d=" M 647.51 573.37 C 650.53 570.53 652.95 577.78 649.53 578.69 C 646.53 579.96 646.08 575.07 647.51 573.37 Z" />
<path fill="rgba(0,0,0,0)" opacity="1.00" d=" M 601.24 637.55 C 601.79 636.74 602.34 635.92 602.97 635.17 C 603.75 635.81 604.29 636.69 604.80 637.56 C 603.63 638.77 602.38 638.83 601.24 637.55 Z" />
</g>
<g id="Group-000000" fill="#000000">
<path fill="#000000" opacity="1.00" d=" M 306.20 575.20 C 308.39 573.91 310.92 575.66 310.97 578.07 C 309.90 581.43 305.34 582.97 305.70 586.95 C 305.32 589.88 308.20 591.34 309.74 593.33 C 310.43 595.25 309.09 597.56 306.92 597.44 C 303.27 597.33 300.22 594.43 299.10 591.10 C 297.39 585.05 300.72 578.08 306.20 575.20 Z" />
</g>
<g id="Group-000000" fill="#000000">
<path fill="rgba(0,0,0,0)" opacity="1.00" d=" M 231.11 579.02 C 234.07 577.38 231.37 582.32 231.11 579.02 Z" />
</g>
<g id="Group-000000" fill="#000000">
<path fill="#000000" opacity="1.00" d=" M 554.89 582.74 C 559.35 580.11 564.67 577.39 569.96 578.86 C 566.52 581.11 562.37 581.79 558.81 583.79 C 555.19 585.49 552.39 588.44 548.86 590.28 C 548.61 586.57 552.35 584.67 554.89 582.74 Z" />
</g>
<g id="Group-000000" fill="#000000">
<path fill="#000000" opacity="1.00" d=" M 381.40 590.30 C 385.44 587.76 391.24 588.97 393.88 592.96 C 398.69 600.15 396.94 610.90 390.23 616.32 C 385.81 619.88 378.84 620.36 374.41 616.56 C 370.06 612.44 368.82 605.78 370.37 600.15 C 370.88 599.86 371.90 599.30 372.41 599.01 C 372.56 603.83 371.78 609.62 375.65 613.31 C 378.33 616.46 383.19 616.91 386.61 614.74 C 392.49 611.18 394.57 603.19 392.44 596.89 C 391.33 593.84 387.72 591.10 384.44 592.55 C 382.61 593.16 380.87 594.35 378.85 594.11 C 377.99 592.24 380.16 591.14 381.40 590.30 Z" />
</g>
<g id="Group-000000" fill="#000000">
<path fill="#000000" opacity="1.00" d=" M 286.55 708.29 C 291.08 706.90 296.52 707.71 300.21 710.79 C 301.62 711.89 301.08 713.99 299.94 715.09 C 294.93 713.40 289.86 711.40 284.46 711.92 C 284.76 710.48 284.89 708.79 286.55 708.29 Z" />
</g>
<g id="Group-000000" fill="#000000">
<path fill="#000000" opacity="1.00" d=" M 276.89 717.15 C 280.05 715.49 283.72 715.89 287.14 716.13 C 290.09 716.43 293.67 718.08 293.25 721.64 C 287.85 721.13 282.44 720.83 277.03 720.56 C 276.97 719.41 276.93 718.28 276.89 717.15 Z" />
</g>
<g id="Group-000000" fill="#000000">
<path fill="#000000" opacity="1.00" d=" M 294.16 723.26 C 299.59 721.77 305.65 723.62 309.82 727.27 C 309.91 728.12 310.10 729.81 310.19 730.66 C 307.60 730.72 305.39 729.24 303.00 728.51 C 300.49 727.76 297.89 727.42 295.40 726.61 C 294.06 726.03 294.40 724.40 294.16 723.26 Z" />
</g>
</g></svg>