<svg xmlns="http://www.w3.org/2000/svg" version="1.1" viewBox="0.00 0.00 1024.00 1024.00">
<g id="Parent-Group"><g fill="rgba(0,0,0,0)" id="Group-rgba(0,0,0,0)">
<path d="   M 1024.00 0.00   L 1024.00 1024.00   L 631.03 1024.00   Q 634.22 1022.49 638.18 1022.13   Q 643.97 1021.60 645.27 1021.27   C 659.41 1017.74 670.08 1008.31 678.24 995.98   Q 685.45 985.08 690.21 972.99   Q 696.64 956.66 701.34 943.66   Q 719.10 894.58 736.91 840.91   C 739.25 833.88 742.33 825.40 743.93 818.00   Q 746.16 807.71 742.90 796.87   Q 740.81 789.94 735.61 786.75   A 0.76 0.75 -68.0 0 1 735.27 785.94   L 746.39 736.54   A 0.96 0.95 -89.0 0 1 747.13 735.82   Q 751.03 735.03 754.18 732.41   Q 772.17 717.40 789.23 699.48   Q 794.85 693.58 805.99 679.06   Q 807.42 677.19 808.98 675.40   Q 811.47 672.55 811.99 671.72   Q 818.42 661.51 811.97 651.01   Q 811.70 650.58 812.04 650.21   Q 818.80 642.78 816.91 634.56   Q 814.24 623.00 801.42 623.39   Q 800.06 623.43 800.96 621.90   A 1.41 1.36 1.0 0 1 801.56 621.34   Q 802.62 620.82 807.63 618.39   C 815.25 614.70 821.79 608.05 824.05 599.78   Q 825.20 595.54 823.90 591.62   C 821.96 585.80 816.05 583.09 810.26 584.53   Q 808.85 584.89 805.45 586.01   A 0.88 0.87 86.7 0 1 804.32 585.00   Q 804.69 583.19 806.47 581.98   Q 820.35 572.52 828.85 558.29   C 832.65 551.94 835.01 542.96 828.64 537.54   Q 823.70 533.32 816.37 534.62   Q 812.74 535.26 809.68 536.54   A 0.38 0.38 0.0 0 1 809.16 536.15   Q 810.03 528.58 817.21 464.64   Q 817.46 462.38 817.51 460.31   C 817.59 456.85 817.83 452.72 816.98 449.57   Q 814.57 440.67 807.97 436.09   Q 807.67 435.88 806.83 435.32   A 1.67 1.65 60.7 0 0 805.89 435.05   Q 776.66 435.26 765.75 434.82   Q 750.50 434.21 749.67 434.20   Q 746.00 434.17 742.33 433.96   Q 737.60 433.69 735.00 433.70   Q 734.42 433.71 731.99 433.62   Q 724.56 433.36 716.95 433.29   Q 713.62 433.27 711.78 434.06   C 707.53 435.89 703.19 436.63 700.02 439.78   Q 696.08 443.71 695.35 449.30   Q 689.52 494.45 685.74 538.47   A 0.73 0.67 -80.6 0 1 684.89 539.13   L 683.77 538.83   Q 683.34 538.72 682.86 539.07   Q 682.07 539.64 679.98 543.72   Q 678.67 546.30 674.24 550.99   Q 671.71 553.68 667.11 556.78   Q 660.37 561.31 657.63 563.12   Q 653.22 566.02 643.90 575.17   Q 640.09 578.92 637.04 586.33   Q 616.71 635.75 597.05 684.59   Q 593.13 694.33 590.12 701.42   Q 589.37 703.19 588.94 701.32   C 585.48 686.23 577.37 673.85 564.59 664.87   Q 551.45 655.65 535.64 652.04   Q 528.81 650.48 527.49 650.13   Q 526.71 649.93 519.40 648.04   Q 507.11 644.85 496.94 638.49   A 2.32 2.31 16.0 0 1 495.85 636.53   L 495.90 614.00   A 0.37 0.37 0.0 0 1 496.27 613.63   Q 511.45 613.62 549.75 613.58   Q 563.46 613.56 569.72 612.90   Q 587.76 611.01 602.69 604.47   Q 626.27 594.16 638.44 571.56   C 651.56 547.23 649.89 517.98 635.80 493.97   Q 631.04 485.84 623.85 476.99   Q 620.85 473.29 619.09 471.68   C 615.05 467.98 612.15 463.80 607.51 460.32   A 1.05 1.03 -71.7 0 1 607.10 459.49   C 607.20 447.95 607.12 430.28 607.56 415.75   Q 608.59 381.82 608.98 367.93   Q 608.99 367.38 609.54 367.39   Q 628.83 367.68 639.58 353.71   C 648.30 342.37 650.19 325.82 647.00 312.23   C 642.76 294.13 637.37 277.69 626.73 263.76   Q 608.99 240.55 580.17 233.85   C 567.97 231.01 555.06 229.96 542.48 229.18   Q 535.45 228.74 522.50 228.67   Q 502.08 228.57 501.85 228.56   Q 494.86 228.21 487.88 227.66   Q 478.66 226.93 469.76 224.95   Q 463.72 223.61 452.41 219.85   Q 434.00 213.74 426.71 211.95   Q 410.34 207.92 394.53 210.43   Q 379.62 212.80 369.09 218.58   Q 365.61 220.49 364.01 221.15   Q 363.59 221.32 363.85 220.94   Q 364.69 219.72 366.45 217.56   Q 378.98 202.21 370.28 184.68   Q 369.23 182.57 367.46 180.97   Q 367.04 180.59 366.47 180.62   Q 364.28 180.70 363.69 182.64   Q 363.51 183.23 363.80 183.79   Q 364.74 185.58 366.99 190.31   C 371.21 199.15 367.12 210.19 360.59 216.85   Q 357.98 219.52 352.89 223.75   Q 352.40 224.16 352.38 223.52   C 352.32 221.49 352.19 219.11 351.65 217.05   Q 347.82 202.30 332.86 198.69   Q 329.75 197.94 325.49 198.46   Q 323.18 198.75 323.75 201.13   Q 323.76 201.16 323.76 201.22   Q 323.87 203.44 326.74 203.45   Q 339.46 203.47 344.40 213.11   Q 347.40 218.95 347.37 225.66   A 0.75 0.74 -75.7 0 1 346.27 226.32   Q 327.09 215.92 309.94 232.13   Q 307.64 234.29 309.16 236.18   Q 309.19 236.22 309.22 236.26   Q 310.54 238.33 312.26 236.91   Q 318.81 231.52 320.67 230.42   C 327.52 226.35 337.90 226.48 344.50 231.76   A 0.51 0.51 0.0 0 1 344.47 232.58   Q 331.73 241.30 319.20 251.45   Q 314.98 254.87 313.03 258.76   Q 304.12 276.53 298.46 287.92   Q 291.55 301.84 291.13 316.50   Q 291.05 319.26 291.06 327.08   Q 291.07 332.22 291.49 337.65   Q 293.26 360.54 293.37 362.46   Q 293.66 367.42 293.71 372.07   C 293.76 376.31 293.89 383.07 293.37 388.36   Q 292.79 394.16 292.71 395.02   Q 292.14 400.59 290.37 407.12   Q 287.57 417.42 279.83 424.05   Q 275.11 428.09 268.09 432.31   Q 243.03 447.37 222.07 468.69   Q 213.83 477.08 209.43 483.70   Q 203.51 492.61 200.16 501.14   C 192.79 519.89 192.73 540.66 201.14 558.91   C 211.88 582.22 232.74 596.62 257.20 603.35   Q 276.31 608.61 297.26 609.68   Q 318.23 610.75 341.50 611.72   Q 352.81 612.20 359.39 612.15   A 0.92 0.90 89.7 0 1 360.30 613.07   L 360.26 636.88   Q 360.26 637.51 359.71 637.79   Q 335.94 649.82 315.58 661.80   C 292.57 675.32 272.09 692.82 256.94 714.20   Q 235.35 744.68 229.07 781.92   Q 227.84 789.26 227.31 801.28   Q 226.95 809.48 226.48 820.75   Q 222.21 922.38 217.24 1024.00   L 0.00 1024.00   L 0.00 0.00   L 1024.00 0.00   Z   M 390.63 200.13   L 400.78 187.95   A 1.26 1.26 0.0 0 0 400.62 186.18   L 400.00 185.66   A 6.43 3.54 -50.2 0 0 393.17 188.34   L 389.63 192.58   A 6.43 3.54 -50.2 0 0 388.24 199.78   L 388.85 200.30   A 1.26 1.26 0.0 0 0 390.63 200.13   Z" />
<path d="   M 382.59 415.28   A 0.39 0.39 0.0 0 0 383.15 415.72   Q 418.38 397.77 426.71 359.75   C 428.50 351.60 428.87 342.76 429.27 335.74   Q 429.34 334.48 429.90 332.82   A 0.78 0.78 0.0 0 1 431.22 332.54   Q 441.93 344.42 454.96 350.41   Q 455.44 350.63 455.40 351.16   Q 455.33 351.99 454.58 352.68   A 0.35 0.35 0.0 0 0 454.60 353.22   L 454.82 353.39   Q 454.92 353.47 455.01 353.37   Q 459.27 348.70 460.84 345.83   Q 466.12 336.18 466.33 335.79   Q 467.16 334.26 467.61 335.95   C 471.09 349.04 481.53 359.55 495.42 360.59   C 506.17 361.40 515.94 357.43 524.62 350.84   A 0.54 0.53 48.9 0 1 525.32 350.89   Q 528.81 354.51 533.29 356.31   Q 557.93 366.21 580.17 351.89   A 0.86 0.86 0.0 0 1 581.31 352.09   Q 589.47 362.59 602.74 366.08   Q 603.45 366.27 603.45 367.00   Q 603.45 377.63 603.20 385.52   Q 602.81 397.99 602.75 402.00   Q 602.67 407.99 602.33 413.01   C 601.68 422.98 601.91 434.04 601.92 442.85   Q 601.92 456.52 601.28 461.70   Q 599.26 478.12 592.18 494.96   C 577.21 530.56 546.48 555.99 508.02 562.07   C 500.91 563.19 492.67 563.73 484.64 563.77   Q 480.20 563.80 451.43 563.87   Q 448.98 563.88 449.05 566.53   Q 449.05 566.60 449.05 566.63   Q 449.28 569.27 452.02 569.28   L 490.11 569.41   A 0.58 0.57 0.0 0 1 490.69 569.98   L 490.66 635.99   A 0.65 0.65 0.0 0 1 490.01 636.64   L 366.26 636.69   A 0.69 0.68 -0.0 0 1 365.57 636.01   L 365.50 475.96   A 1.09 1.09 0.0 0 0 364.41 474.87   Q 348.69 474.87 338.96 462.68   Q 333.49 455.83 331.97 446.32   Q 331.73 444.79 331.85 435.09   C 331.95 427.07 333.21 417.84 334.15 410.81   Q 336.17 395.65 349.84 388.85   Q 356.78 385.40 364.98 386.37   Q 373.00 387.32 378.77 393.80   C 383.84 399.49 384.34 407.90 382.59 415.28   Z   M 577.31 375.24   Q 584.88 378.41 589.21 386.91   Q 589.98 388.44 590.60 388.78   C 591.99 389.54 594.39 388.46 594.37 386.76   Q 594.36 385.16 593.96 384.36   Q 588.98 374.31 579.38 370.29   Q 569.77 366.27 559.12 369.78   Q 558.27 370.06 557.12 371.17   C 555.90 372.35 556.81 374.82 558.33 375.28   Q 559.01 375.48 560.64 374.95   Q 569.73 372.07 577.31 375.24   Z   M 478.77 373.76   Q 471.23 377.74 466.66 386.20   Q 464.72 389.79 467.62 391.11   A 2.04 1.98 51.8 0 0 468.82 391.27   Q 470.43 390.99 471.32 389.29   Q 475.29 381.68 481.28 378.51   Q 487.28 375.34 495.80 376.35   Q 497.71 376.57 498.85 375.39   A 2.04 1.98 72.5 0 0 499.39 374.31   Q 499.93 371.17 495.87 370.75   Q 486.31 369.77 478.77 373.76   Z   M 363.67 424.17   Q 362.93 424.03 355.07 422.57   Q 351.58 421.93 347.62 422.60   A 2.15 2.14 11.2 0 0 346.16 423.57   Q 345.35 424.87 345.33 425.38   Q 345.24 427.72 347.61 427.77   L 355.39 427.94   A 1.10 1.04 24.0 0 1 356.16 429.79   C 350.02 435.11 348.02 445.06 353.09 451.75   Q 354.09 453.07 355.51 453.68   Q 355.97 453.88 356.44 453.71   C 358.10 453.08 359.09 451.66 358.13 449.95   C 357.40 448.65 356.36 447.14 355.92 445.73   C 354.72 441.98 355.52 437.58 358.70 434.80   Q 361.71 432.17 363.04 431.76   Q 366.65 430.64 369.47 429.34   A 1.61 1.60 73.5 0 0 370.39 427.64   Q 368.89 417.46 361.28 406.10   Q 359.84 403.95 357.55 405.14   Q 357.38 405.23 357.34 405.25   Q 355.07 406.48 356.58 408.64   Q 362.40 416.98 364.21 423.58   Q 364.41 424.30 363.67 424.17   Z   M 554.09 462.35   Q 551.65 465.24 547.70 463.84   Q 545.61 463.10 541.15 461.41   Q 538.93 460.57 537.64 462.56   Q 537.54 462.72 537.47 462.85   Q 536.37 464.93 538.70 466.12   C 544.24 468.94 552.31 471.69 556.86 467.31   Q 562.15 462.22 558.52 455.30   Q 554.29 447.24 552.64 443.54   Q 548.58 434.44 550.65 424.27   Q 551.27 421.27 552.95 413.17   Q 553.46 410.71 550.82 410.15   Q 550.79 410.15 550.71 410.14   Q 548.14 409.78 547.56 412.42   Q 546.26 418.37 545.02 426.25   C 543.32 437.00 547.35 445.87 552.76 456.08   Q 553.76 457.97 554.56 460.05   Q 555.02 461.24 554.09 462.35   Z   M 591.1890 422.1014   A 6.49 6.49 0.0 0 0 584.5867 415.7257   L 583.8668 415.7382   A 6.49 6.49 0.0 0 0 577.4911 422.3405   L 577.7110 434.9386   A 6.49 6.49 0.0 0 0 584.3133 441.3143   L 585.0332 441.3018   A 6.49 6.49 0.0 0 0 591.4089 434.6995   L 591.1890 422.1014   Z   M 491.6801 422.4248   A 6.07 6.07 0.0 0 0 485.6526 416.3125   L 485.0126 416.3081   A 6.07 6.07 0.0 0 0 478.9004 422.3355   L 478.8199 433.8552   A 6.07 6.07 0.0 0 0 484.8474 439.9675   L 485.4874 439.9719   A 6.07 6.07 0.0 0 0 491.5996 433.9445   L 491.6801 422.4248   Z   M 515.79 504.15   Q 525.77 504.14 533.97 495.48   C 535.04 494.34 536.87 492.18 536.05 490.55   Q 535.26 488.97 533.74 488.80   A 2.00 1.98 -66.1 0 0 532.01 489.48   C 527.69 494.57 522.52 498.72 515.78 498.73   C 509.05 498.73 503.87 494.58 499.55 489.50   A 2.00 1.98 66.1 0 0 497.81 488.82   Q 496.30 488.99 495.51 490.58   C 494.69 492.21 496.52 494.36 497.59 495.50   Q 505.80 504.15 515.79 504.15   Z" />
<path d="   M 708.79 513.25   Q 710.07 500.42 713.91 457.00   Q 713.99 456.10 714.74 451.02   C 715.47 446.15 717.25 442.97 721.76 441.35   Q 723.78 440.62 727.84 440.75   Q 730.40 440.84 734.06 440.46   Q 734.39 440.43 734.39 440.76   Q 734.39 440.89 734.32 441.00   Q 734.25 441.09 734.14 441.12   C 724.63 443.88 720.26 454.10 719.46 463.30   Q 716.26 499.76 708.57 575.92   Q 708.37 577.90 708.34 577.97   Q 706.77 581.98 707.11 577.69   Q 708.33 562.03 708.40 545.75   Q 708.41 542.72 707.84 536.73   Q 707.36 531.66 707.60 527.75   Q 708.03 520.89 708.79 513.25   Z" />
<rect x="-11.16" y="-3.47" transform="translate(761.20,449.85) rotate(-0.2)" width="22.32" height="6.94" rx="0.26" />
<path d="   M 218.35 483.19   C 206.50 507.17 211.65 534.95 227.43 555.93   Q 243.33 577.08 268.15 595.57   Q 270.71 597.47 276.01 599.49   Q 278.74 600.54 285.29 602.21   Q 285.60 602.29 285.62 602.64   L 285.64 602.94   Q 285.66 603.28 285.37 603.26   Q 271.72 602.04 258.15 598.18   Q 243.12 593.90 231.17 585.98   C 212.89 573.87 201.16 554.63 199.85 532.65   Q 199.34 524.08 201.26 515.48   Q 205.71 495.59 219.16 479.30   Q 219.98 478.30 220.06 479.59   Q 220.12 480.53 219.44 481.53   Q 218.47 482.94 218.35 483.19   Z" />
<path d="   M 783.10 520.67   Q 773.00 520.76 754.78 520.71   Q 750.35 520.70 748.11 517.21   Q 746.81 515.19 747.23 511.04   Q 747.46 508.80 748.80 492.83   Q 749.21 487.93 750.66 485.89   Q 752.26 483.64 754.97 482.71   Q 756.61 482.14 760.10 482.17   Q 772.25 482.26 784.41 482.19   Q 789.41 482.16 791.41 483.30   C 794.97 485.33 795.30 488.84 794.95 492.92   Q 794.61 497.07 793.48 511.76   A 6.25 5.58 38.5 0 0 793.96 514.56   L 798.99 526.23   Q 799.35 527.06 798.54 526.65   Q 797.43 526.09 788.20 521.79   Q 785.73 520.65 783.10 520.67   Z   M 770.72 504.94   Q 773.11 503.49 778.03 501.49   Q 780.06 500.66 778.68 498.95   Q 777.87 497.95 777.23 497.55   Q 771.28 493.89 768.58 491.91   A 1.91 1.91 0.0 0 0 765.54 493.39   Q 765.37 499.25 764.64 504.61   C 764.39 506.43 764.77 508.21 766.96 508.07   Q 767.46 508.04 767.82 507.70   C 768.88 506.69 769.26 505.82 770.72 504.94   Z" />
<path d="   M 613.16 573.75   C 618.22 569.64 620.88 567.59 622.34 561.10   Q 625.15 548.64 626.60 541.65   Q 630.95 520.79 626.58 499.79   Q 625.38 494.03 623.58 487.99   Q 622.48 484.32 624.88 487.31   Q 634.73 499.56 639.23 515.02   Q 645.03 534.98 639.74 554.29   C 634.31 574.14 620.97 589.81 602.29 598.78   C 589.90 604.72 576.40 607.00 562.52 608.16   A 0.75 0.74 -26.9 0 1 561.96 607.98   Q 561.47 607.56 562.02 607.34   Q 573.17 602.93 585.79 597.29   Q 595.56 592.93 602.71 584.97   Q 603.98 583.55 608.19 578.60   Q 610.44 575.94 613.16 573.75   Z" />
<path d="   M 772.48 499.34   Q 772.41 500.13 770.61 500.15   Q 770.07 500.15 769.89 499.65   Q 769.81 499.42 769.83 499.13   Q 769.86 498.83 769.97 498.62   Q 770.23 498.15 770.76 498.24   Q 772.54 498.55 772.48 499.34   Z" />
<path d="   M 808.31 573.82   Q 806.15 575.58 805.59 575.91   Q 804.91 576.31 804.99 575.53   L 808.13 544.30   Q 808.18 543.85 808.55 543.59   C 812.33 540.83 818.27 538.74 822.93 540.31   C 830.44 542.85 826.86 551.20 824.25 555.81   Q 819.03 565.05 808.31 573.82   Z" />
<path d="   M 706.27 626.00   C 704.19 627.50 701.44 630.11 704.00 632.40   Q 705.30 633.55 707.49 633.00   C 715.32 631.01 720.26 629.77 726.82 629.50   C 734.67 629.17 741.15 633.24 741.64 641.50   Q 741.92 646.14 739.38 650.15   Q 737.01 653.90 732.33 656.35   Q 726.33 659.50 716.80 664.02   Q 714.91 664.92 714.70 666.97   C 714.47 669.13 717.24 670.01 718.78 669.72   Q 731.17 667.42 738.53 668.07   C 741.33 668.32 744.80 669.80 746.57 672.18   Q 750.06 676.90 747.12 682.64   C 744.94 686.90 740.66 689.27 735.65 691.62   Q 729.79 694.37 717.11 698.59   Q 712.65 700.08 707.83 703.61   Q 706.00 704.94 672.18 730.17   Q 659.97 739.28 651.02 742.79   C 649.53 743.37 648.80 746.14 648.24 747.58   Q 631.63 790.43 626.60 803.52   Q 626.38 804.08 625.84 803.83   Q 594.35 789.04 566.48 769.74   A 1.44 1.44 0.0 0 1 565.99 767.98   Q 577.40 742.25 589.22 716.44   Q 593.47 707.16 597.15 698.07   Q 619.16 643.71 637.87 598.00   Q 642.32 587.13 643.46 585.20   Q 646.84 579.48 652.53 574.31   Q 658.55 568.84 664.28 565.03   C 670.70 560.76 675.06 558.18 679.40 553.37   Q 682.14 550.34 685.55 545.05   A 0.94 0.94 0.0 0 1 686.86 544.78   Q 691.85 548.10 692.56 553.30   C 693.45 559.75 688.31 568.31 684.24 573.51   Q 677.74 581.82 665.20 593.96   Q 664.55 594.58 664.35 595.56   Q 662.41 604.77 660.35 619.52   Q 660.08 621.42 660.89 622.30   Q 661.69 623.19 663.03 623.24   Q 663.99 623.27 665.02 622.43   Q 669.78 618.54 684.45 607.22   Q 697.33 597.27 729.46 573.70   Q 738.01 567.44 743.68 564.17   C 745.14 563.33 748.95 561.41 750.69 562.77   C 753.58 565.04 752.63 569.20 751.43 572.19   Q 748.80 578.69 744.86 584.85   Q 729.15 609.35 706.27 626.00   Z" />
<path d="   M 677.77 605.20   L 666.92 614.08   A 0.34 0.34 0.0 0 1 666.37 613.76   L 669.09 597.74   A 0.34 0.34 0.0 0 1 669.18 597.56   L 679.31 587.23   A 0.34 0.34 0.0 0 1 679.89 587.50   L 677.90 604.97   A 0.34 0.34 0.0 0 1 677.77 605.20   Z" />
<path d="   M 804.31 591.81   C 808.51 590.23 817.52 586.92 819.03 593.57   C 820.89 601.77 812.71 609.65 805.99 613.24   Q 792.43 620.48 777.56 623.81   Q 774.44 624.50 772.70 623.22   C 769.21 620.65 770.77 613.22 772.35 610.17   Q 773.66 607.64 778.79 604.53   Q 792.47 596.25 804.31 591.81   Z" />
<path d="   M 786.29 651.74   Q 779.85 652.35 775.02 651.58   Q 770.24 650.82 769.76 645.89   Q 769.33 641.55 772.97 637.97   Q 774.81 636.16 781.73 634.14   Q 796.74 629.76 802.11 629.24   Q 811.49 628.35 812.18 637.54   Q 812.43 640.91 809.92 644.55   Q 808.17 647.07 804.22 648.32   Q 796.40 650.78 786.29 651.74   Z" />
<path d="   M 523.62 656.00   Q 505.43 671.55 482.80 679.05   Q 461.32 686.16 439.52 687.04   Q 381.47 689.39 332.50 659.04   A 0.47 0.47 0.0 0 1 332.53 658.22   L 361.32 642.85   A 6.44 5.95 -57.1 0 1 364.25 642.10   Q 373.69 642.10 491.25 642.09   Q 491.94 642.09 493.03 642.70   Q 506.69 650.33 515.11 652.59   Q 516.76 653.03 523.46 655.19   A 0.47 0.47 0.0 0 1 523.62 656.00   Z" />
<path d="   M 801.45 672.95   C 795.06 674.44 787.70 674.91 782.30 673.51   Q 778.27 672.45 777.83 669.11   C 777.31 665.16 781.30 661.36 784.55 659.99   Q 793.94 656.03 804.79 655.73   Q 808.99 655.61 809.91 659.55   C 810.48 661.97 809.36 665.60 808.42 667.63   Q 806.51 671.77 801.45 672.95   Z" />
<path d="   M 513.58 1024.00   L 415.43 1024.00   Q 410.27 1019.69 405.32 1015.50   Q 399.62 1010.68 395.54 1006.76   C 371.82 983.96 351.41 958.92 331.28 931.73   Q 313.44 907.63 288.78 871.23   Q 282.46 861.91 280.32 857.90   C 271.65 841.68 265.48 823.47 259.01 804.41   Q 258.21 802.04 255.80 802.83   Q 255.79 802.83 255.70 802.86   Q 253.30 803.74 254.11 806.17   Q 258.19 818.33 264.75 836.05   Q 271.93 855.46 282.05 870.55   Q 313.33 917.21 341.18 953.45   Q 348.97 963.57 362.30 979.26   Q 379.49 999.48 398.00 1016.24   Q 400.92 1018.88 407.29 1024.00   L 222.26 1024.00   Q 227.27 915.50 231.99 806.99   Q 232.55 794.11 233.50 787.09   C 238.90 747.23 259.58 711.65 290.48 685.96   Q 307.24 672.04 325.81 662.10   A 1.76 1.75 -40.4 0 1 327.71 662.25   Q 330.30 664.22 334.98 666.90   Q 375.01 689.77 420.28 692.62   Q 441.67 693.96 463.10 689.88   C 488.29 685.09 512.03 674.55 530.45 657.21   A 1.68 1.67 -61.1 0 1 531.93 656.78   Q 543.50 659.09 553.99 664.54   Q 581.43 678.79 585.09 710.12   Q 585.33 712.19 584.51 713.99   Q 572.73 740.05 561.51 765.20   A 0.41 0.40 -65.4 0 1 560.98 765.40   C 557.55 763.85 552.65 761.62 548.22 761.70   Q 535.04 761.94 529.00 773.30   Q 503.22 821.79 478.28 865.16   A 0.70 0.69 -68.2 0 1 477.52 865.49   C 467.74 863.31 459.00 864.22 452.54 872.54   Q 449.69 876.21 447.85 880.48   A 1.64 1.64 0.0 0 1 446.38 881.46   Q 431.12 881.67 418.56 891.33   Q 410.77 897.32 404.42 904.13   Q 402.72 905.94 404.38 907.78   Q 404.44 907.84 404.45 907.86   Q 406.13 909.70 407.93 908.00   C 415.77 900.59 420.28 895.97 428.72 891.19   Q 436.00 887.06 444.64 887.01   A 0.51 0.50 -82.3 0 1 445.13 887.66   Q 436.87 916.25 421.92 943.87   Q 420.80 945.94 423.54 947.23   Q 423.88 947.39 424.81 947.29   A 2.49 2.48 11.0 0 0 426.74 945.99   Q 441.76 918.06 450.18 889.24   Q 450.72 887.38 453.11 881.65   C 455.57 875.73 460.79 870.10 467.52 869.82   Q 471.85 869.64 475.43 870.49   A 0.71 0.69 -74.8 0 1 475.93 871.38   Q 471.38 886.34 469.02 902.05   Q 468.71 904.14 471.40 905.02   Q 471.45 905.04 471.50 905.03   Q 473.76 904.60 474.14 902.62   C 476.58 889.98 477.62 883.49 480.77 873.87   C 483.64 865.06 488.59 857.62 494.67 846.96   Q 512.40 815.90 529.75 782.79   C 532.11 778.28 535.33 772.13 539.08 769.64   C 545.64 765.27 552.63 766.72 559.01 771.11   Q 581.31 786.48 601.32 797.48   Q 604.79 799.39 625.72 809.82   C 630.48 812.19 635.69 817.10 636.48 822.82   Q 637.10 827.33 636.31 831.04   Q 635.25 836.05 632.88 840.39   Q 625.34 854.24 621.60 861.36   Q 619.83 864.72 590.91 922.60   Q 576.82 950.81 558.45 976.45   Q 545.93 993.93 531.75 1007.99   Q 524.31 1015.36 513.58 1024.00   Z" />
<path d="   M 743.21 731.42   Q 742.25 731.86 741.94 733.18   Q 735.51 760.87 730.25 784.60   Q 730.08 785.36 729.31 785.20   L 672.56 772.79   A 0.30 0.30 0.0 0 1 672.33 772.43   L 682.18 730.43   A 3.47 3.45 78.4 0 1 683.47 728.46   Q 694.89 719.86 708.17 709.93   C 711.17 707.68 713.41 705.98 716.46 704.68   Q 719.75 703.27 728.24 700.49   Q 734.62 698.41 742.88 694.14   Q 744.90 693.10 746.87 693.12   Q 747.76 693.14 767.23 693.10   Q 768.73 693.10 773.76 692.67   Q 776.76 692.42 780.30 692.23   Q 786.73 691.90 790.97 687.23   Q 792.61 685.42 795.46 680.94   Q 796.33 679.57 796.84 679.36   Q 799.00 678.45 797.78 680.41   C 795.02 684.82 791.78 689.00 788.10 692.95   Q 770.70 711.68 750.68 728.43   C 748.41 730.33 745.27 730.47 743.21 731.42   Z" />
<path d="   M 640.18 817.51   Q 637.80 811.47 632.07 807.87   Q 631.64 807.60 631.57 807.10   Q 631.35 805.60 632.05 803.82   Q 636.43 792.61 651.36 753.88   Q 652.98 749.70 654.33 747.53   Q 654.60 747.10 655.06 746.90   Q 664.84 742.59 674.46 735.10   Q 674.59 735.00 674.95 734.87   Q 675.27 734.75 675.46 734.66   A 0.33 0.32 -5.5 0 1 675.91 735.03   L 667.16 771.44   Q 667.05 771.93 666.54 771.95   Q 655.37 772.41 651.78 783.79   Q 645.40 803.96 641.05 817.48   Q 640.66 818.71 640.18 817.51   Z" />
<path d="   M 629.87 856.47   Q 632.07 852.93 634.35 848.46   C 635.77 845.69 638.82 842.32 639.65 839.38   Q 642.25 830.18 645.14 821.39   Q 652.16 800.02 657.05 784.07   Q 658.73 778.59 664.77 777.51   Q 666.73 777.16 672.33 778.38   Q 699.86 784.38 732.03 791.46   Q 734.93 792.10 736.49 795.28   C 741.29 805.05 740.08 814.96 736.79 824.93   Q 724.87 861.08 707.88 910.12   Q 699.96 932.96 689.35 961.08   Q 684.40 974.17 680.03 982.77   C 673.92 994.78 664.89 1006.55 653.11 1012.70   Q 643.80 1017.56 632.49 1017.31   A 0.91 0.91 0.0 0 1 631.60 1016.41   L 629.23 858.78   Q 629.21 857.53 629.87 856.47   Z" />
<path d="   M 626.78 1024.00   L 521.76 1024.00   Q 536.48 1012.26 549.09 997.09   Q 568.71 973.49 582.64 948.67   Q 593.80 928.78 604.55 907.05   Q 615.74 884.44 623.16 869.83   Q 624.36 867.47 624.40 870.12   L 626.78 1024.00   Z" />
</g>
<g fill="#000000" id="Group-000000">
<path d="   M 631.03 1024.00   L 626.78 1024.00   L 624.40 870.12   Q 624.36 867.47 623.16 869.83   Q 615.74 884.44 604.55 907.05   Q 593.80 928.78 582.64 948.67   Q 568.71 973.49 549.09 997.09   Q 536.48 1012.26 521.76 1024.00   L 513.58 1024.00   Q 524.31 1015.36 531.75 1007.99   Q 545.93 993.93 558.45 976.45   Q 576.82 950.81 590.91 922.60   Q 619.83 864.72 621.60 861.36   Q 625.34 854.24 632.88 840.39   Q 635.25 836.05 636.31 831.04   Q 637.10 827.33 636.48 822.82   C 635.69 817.10 630.48 812.19 625.72 809.82   Q 604.79 799.39 601.32 797.48   Q 581.31 786.48 559.01 771.11   C 552.63 766.72 545.64 765.27 539.08 769.64   C 535.33 772.13 532.11 778.28 529.75 782.79   Q 512.40 815.90 494.67 846.96   C 488.59 857.62 483.64 865.06 480.77 873.87   C 477.62 883.49 476.58 889.98 474.14 902.62   Q 473.76 904.60 471.50 905.03   Q 471.45 905.04 471.40 905.02   Q 468.71 904.14 469.02 902.05   Q 471.38 886.34 475.93 871.38   A 0.71 0.69 -74.8 0 0 475.43 870.49   Q 471.85 869.64 467.52 869.82   C 460.79 870.10 455.57 875.73 453.11 881.65   Q 450.72 887.38 450.18 889.24   Q 441.76 918.06 426.74 945.99   A 2.49 2.48 11.0 0 1 424.81 947.29   Q 423.88 947.39 423.54 947.23   Q 420.80 945.94 421.92 943.87   Q 436.87 916.25 445.13 887.66   A 0.51 0.50 -82.3 0 0 444.64 887.01   Q 436.00 887.06 428.72 891.19   C 420.28 895.97 415.77 900.59 407.93 908.00   Q 406.13 909.70 404.45 907.86   Q 404.44 907.84 404.38 907.78   Q 402.72 905.94 404.42 904.13   Q 410.77 897.32 418.56 891.33   Q 431.12 881.67 446.38 881.46   A 1.64 1.64 0.0 0 0 447.85 880.48   Q 449.69 876.21 452.54 872.54   C 459.00 864.22 467.74 863.31 477.52 865.49   A 0.70 0.69 -68.2 0 0 478.28 865.16   Q 503.22 821.79 529.00 773.30   Q 535.04 761.94 548.22 761.70   C 552.65 761.62 557.55 763.85 560.98 765.40   A 0.41 0.40 -65.4 0 0 561.51 765.20   Q 572.73 740.05 584.51 713.99   Q 585.33 712.19 585.09 710.12   Q 581.43 678.79 553.99 664.54   Q 543.50 659.09 531.93 656.78   A 1.68 1.67 -61.1 0 0 530.45 657.21   C 512.03 674.55 488.29 685.09 463.10 689.88   Q 441.67 693.96 420.28 692.62   Q 375.01 689.77 334.98 666.90   Q 330.30 664.22 327.71 662.25   A 1.76 1.75 -40.4 0 0 325.81 662.10   Q 307.24 672.04 290.48 685.96   C 259.58 711.65 238.90 747.23 233.50 787.09   Q 232.55 794.11 231.99 806.99   Q 227.27 915.50 222.26 1024.00   L 217.24 1024.00   Q 222.21 922.38 226.48 820.75   Q 226.95 809.48 227.31 801.28   Q 227.84 789.26 229.07 781.92   Q 235.35 744.68 256.94 714.20   C 272.09 692.82 292.57 675.32 315.58 661.80   Q 335.94 649.82 359.71 637.79   Q 360.26 637.51 360.26 636.88   L 360.30 613.07   A 0.92 0.90 89.7 0 0 359.39 612.15   Q 352.81 612.20 341.50 611.72   Q 318.23 610.75 297.26 609.68   Q 276.31 608.61 257.20 603.35   C 232.74 596.62 211.88 582.22 201.14 558.91   C 192.73 540.66 192.79 519.89 200.16 501.14   Q 203.51 492.61 209.43 483.70   Q 213.83 477.08 222.07 468.69   Q 243.03 447.37 268.09 432.31   Q 275.11 428.09 279.83 424.05   Q 287.57 417.42 290.37 407.12   Q 292.14 400.59 292.71 395.02   Q 292.79 394.16 293.37 388.36   C 293.89 383.07 293.76 376.31 293.71 372.07   Q 293.66 367.42 293.37 362.46   Q 293.26 360.54 291.49 337.65   Q 291.07 332.22 291.06 327.08   Q 291.05 319.26 291.13 316.50   Q 291.55 301.84 298.46 287.92   Q 304.12 276.53 313.03 258.76   Q 314.98 254.87 319.20 251.45   Q 331.73 241.30 344.47 232.58   A 0.51 0.51 0.0 0 0 344.50 231.76   C 337.90 226.48 327.52 226.35 320.67 230.42   Q 318.81 231.52 312.26 236.91   Q 310.54 238.33 309.22 236.26   Q 309.19 236.22 309.16 236.18   Q 307.64 234.29 309.94 232.13   Q 327.09 215.92 346.27 226.32   A 0.75 0.74 -75.7 0 0 347.37 225.66   Q 347.40 218.95 344.40 213.11   Q 339.46 203.47 326.74 203.45   Q 323.87 203.44 323.76 201.22   Q 323.76 201.16 323.75 201.13   Q 323.18 198.75 325.49 198.46   Q 329.75 197.94 332.86 198.69   Q 347.82 202.30 351.65 217.05   C 352.19 219.11 352.32 221.49 352.38 223.52   Q 352.40 224.16 352.89 223.75   Q 357.98 219.52 360.59 216.85   C 367.12 210.19 371.21 199.15 366.99 190.31   Q 364.74 185.58 363.80 183.79   Q 363.51 183.23 363.69 182.64   Q 364.28 180.70 366.47 180.62   Q 367.04 180.59 367.46 180.97   Q 369.23 182.57 370.28 184.68   Q 378.98 202.21 366.45 217.56   Q 364.69 219.72 363.85 220.94   Q 363.59 221.32 364.01 221.15   Q 365.61 220.49 369.09 218.58   Q 379.62 212.80 394.53 210.43   Q 410.34 207.92 426.71 211.95   Q 434.00 213.74 452.41 219.85   Q 463.72 223.61 469.76 224.95   Q 478.66 226.93 487.88 227.66   Q 494.86 228.21 501.85 228.56   Q 502.08 228.57 522.50 228.67   Q 535.45 228.74 542.48 229.18   C 555.06 229.96 567.97 231.01 580.17 233.85   Q 608.99 240.55 626.73 263.76   C 637.37 277.69 642.76 294.13 647.00 312.23   C 650.19 325.82 648.30 342.37 639.58 353.71   Q 628.83 367.68 609.54 367.39   Q 608.99 367.38 608.98 367.93   Q 608.59 381.82 607.56 415.75   C 607.12 430.28 607.20 447.95 607.10 459.49   A 1.05 1.03 -71.7 0 0 607.51 460.32   C 612.15 463.80 615.05 467.98 619.09 471.68   Q 620.85 473.29 623.85 476.99   Q 631.04 485.84 635.80 493.97   C 649.89 517.98 651.56 547.23 638.44 571.56   Q 626.27 594.16 602.69 604.47   Q 587.76 611.01 569.72 612.90   Q 563.46 613.56 549.75 613.58   Q 511.45 613.62 496.27 613.63   A 0.37 0.37 0.0 0 0 495.90 614.00   L 495.85 636.53   A 2.32 2.31 16.0 0 0 496.94 638.49   Q 507.11 644.85 519.40 648.04   Q 526.71 649.93 527.49 650.13   Q 528.81 650.48 535.64 652.04   Q 551.45 655.65 564.59 664.87   C 577.37 673.85 585.48 686.23 588.94 701.32   Q 589.37 703.19 590.12 701.42   Q 593.13 694.33 597.05 684.59   Q 616.71 635.75 637.04 586.33   Q 640.09 578.92 643.90 575.17   Q 653.22 566.02 657.63 563.12   Q 660.37 561.31 667.11 556.78   Q 671.71 553.68 674.24 550.99   Q 678.67 546.30 679.98 543.72   Q 682.07 539.64 682.86 539.07   Q 683.34 538.72 683.77 538.83   L 684.89 539.13   A 0.73 0.67 -80.6 0 0 685.74 538.47   Q 689.52 494.45 695.35 449.30   Q 696.08 443.71 700.02 439.78   C 703.19 436.63 707.53 435.89 711.78 434.06   Q 713.62 433.27 716.95 433.29   Q 724.56 433.36 731.99 433.62   Q 734.42 433.71 735.00 433.70   Q 737.60 433.69 742.33 433.96   Q 746.00 434.17 749.67 434.20   Q 750.50 434.21 765.75 434.82   Q 776.66 435.26 805.89 435.05   A 1.67 1.65 60.7 0 1 806.83 435.32   Q 807.67 435.88 807.97 436.09   Q 814.57 440.67 816.98 449.57   C 817.83 452.72 817.59 456.85 817.51 460.31   Q 817.46 462.38 817.21 464.64   Q 810.03 528.58 809.16 536.15   A 0.38 0.38 0.0 0 0 809.68 536.54   Q 812.74 535.26 816.37 534.62   Q 823.70 533.32 828.64 537.54   C 835.01 542.96 832.65 551.94 828.85 558.29   Q 820.35 572.52 806.47 581.98   Q 804.69 583.19 804.32 585.00   A 0.88 0.87 86.7 0 0 805.45 586.01   Q 808.85 584.89 810.26 584.53   C 816.05 583.09 821.96 585.80 823.90 591.62   Q 825.20 595.54 824.05 599.78   C 821.79 608.05 815.25 614.70 807.63 618.39   Q 802.62 620.82 801.56 621.34   A 1.41 1.36 1.0 0 0 800.96 621.90   Q 800.06 623.43 801.42 623.39   Q 814.24 623.00 816.91 634.56   Q 818.80 642.78 812.04 650.21   Q 811.70 650.58 811.97 651.01   Q 818.42 661.51 811.99 671.72   Q 811.47 672.55 808.98 675.40   Q 807.42 677.19 805.99 679.06   Q 794.85 693.58 789.23 699.48   Q 772.17 717.40 754.18 732.41   Q 751.03 735.03 747.13 735.82   A 0.96 0.95 -89.0 0 0 746.39 736.54   L 735.27 785.94   A 0.76 0.75 -68.0 0 0 735.61 786.75   Q 740.81 789.94 742.90 796.87   Q 746.16 807.71 743.93 818.00   C 742.33 825.40 739.25 833.88 736.91 840.91   Q 719.10 894.58 701.34 943.66   Q 696.64 956.66 690.21 972.99   Q 685.45 985.08 678.24 995.98   C 670.08 1008.31 659.41 1017.74 645.27 1021.27   Q 643.97 1021.60 638.18 1022.13   Q 634.22 1022.49 631.03 1024.00   Z   M 382.59 415.28   C 384.34 407.90 383.84 399.49 378.77 393.80   Q 373.00 387.32 364.98 386.37   Q 356.78 385.40 349.84 388.85   Q 336.17 395.65 334.15 410.81   C 333.21 417.84 331.95 427.07 331.85 435.09   Q 331.73 444.79 331.97 446.32   Q 333.49 455.83 338.96 462.68   Q 348.69 474.87 364.41 474.87   A 1.09 1.09 0.0 0 1 365.50 475.96   L 365.57 636.01   A 0.69 0.68 0.0 0 0 366.26 636.69   L 490.01 636.64   A 0.65 0.65 0.0 0 0 490.66 635.99   L 490.69 569.98   A 0.58 0.57 0.0 0 0 490.11 569.41   L 452.02 569.28   Q 449.28 569.27 449.05 566.63   Q 449.05 566.60 449.05 566.53   Q 448.98 563.88 451.43 563.87   Q 480.20 563.80 484.64 563.77   C 492.67 563.73 500.91 563.19 508.02 562.07   C 546.48 555.99 577.21 530.56 592.18 494.96   Q 599.26 478.12 601.28 461.70   Q 601.92 456.52 601.92 442.85   C 601.91 434.04 601.68 422.98 602.33 413.01   Q 602.67 407.99 602.75 402.00   Q 602.81 397.99 603.20 385.52   Q 603.45 377.63 603.45 367.00   Q 603.45 366.27 602.74 366.08   Q 589.47 362.59 581.31 352.09   A 0.86 0.86 0.0 0 0 580.17 351.89   Q 557.93 366.21 533.29 356.31   Q 528.81 354.51 525.32 350.89   A 0.54 0.53 48.9 0 0 524.62 350.84   C 515.94 357.43 506.17 361.40 495.42 360.59   C 481.53 359.55 471.09 349.04 467.61 335.95   Q 467.16 334.26 466.33 335.79   Q 466.12 336.18 460.84 345.83   Q 459.27 348.70 455.01 353.37   Q 454.92 353.47 454.82 353.39   L 454.60 353.22   A 0.35 0.35 0.0 0 1 454.58 352.68   Q 455.33 351.99 455.40 351.16   Q 455.44 350.63 454.96 350.41   Q 441.93 344.42 431.22 332.54   A 0.78 0.78 0.0 0 0 429.90 332.82   Q 429.34 334.48 429.27 335.74   C 428.87 342.76 428.50 351.60 426.71 359.75   Q 418.38 397.77 383.15 415.72   A 0.39 0.39 0.0 0 1 382.59 415.28   Z   M 708.79 513.25   Q 708.03 520.89 707.60 527.75   Q 707.36 531.66 707.84 536.73   Q 708.41 542.72 708.40 545.75   Q 708.33 562.03 707.11 577.69   Q 706.77 581.98 708.34 577.97   Q 708.37 577.90 708.57 575.92   Q 716.26 499.76 719.46 463.30   C 720.26 454.10 724.63 443.88 734.14 441.12   Q 734.25 441.09 734.32 441.00   Q 734.39 440.89 734.39 440.76   Q 734.39 440.43 734.06 440.46   Q 730.40 440.84 727.84 440.75   Q 723.78 440.62 721.76 441.35   C 717.25 442.97 715.47 446.15 714.74 451.02   Q 713.99 456.10 713.91 457.00   Q 710.07 500.42 708.79 513.25   Z   M 772.3487 446.6011   A 0.26 0.26 0.0 0 0 772.0878 446.3420   L 750.2880 446.4181   A 0.26 0.26 0.0 0 0 750.0289 446.6790   L 750.0513 453.0989   A 0.26 0.26 0.0 0 0 750.3122 453.3580   L 772.1120 453.2819   A 0.26 0.26 0.0 0 0 772.3711 453.0210   L 772.3487 446.6011   Z   M 219.44 481.53   Q 220.12 480.53 220.06 479.59   Q 219.98 478.30 219.16 479.30   Q 205.71 495.59 201.26 515.48   Q 199.34 524.08 199.85 532.65   C 201.16 554.63 212.89 573.87 231.17 585.98   Q 243.12 593.90 258.15 598.18   Q 271.72 602.04 285.37 603.26   Q 285.66 603.28 285.64 602.94   L 285.62 602.64   Q 285.60 602.29 285.29 602.21   Q 278.74 600.54 276.01 599.49   Q 270.71 597.47 268.15 595.57   Q 243.33 577.08 227.43 555.93   C 211.65 534.95 206.50 507.17 218.35 483.19   Q 218.47 482.94 219.44 481.53   Z   M 788.20 521.79   Q 797.43 526.09 798.54 526.65   Q 799.35 527.06 798.99 526.23   L 793.96 514.56   A 6.25 5.58 38.5 0 1 793.48 511.76   Q 794.61 497.07 794.95 492.92   C 795.30 488.84 794.97 485.33 791.41 483.30   Q 789.41 482.16 784.41 482.19   Q 772.25 482.26 760.10 482.17   Q 756.61 482.14 754.97 482.71   Q 752.26 483.64 750.66 485.89   Q 749.21 487.93 748.80 492.83   Q 747.46 508.80 747.23 511.04   Q 746.81 515.19 748.11 517.21   Q 750.35 520.70 754.78 520.71   Q 773.00 520.76 783.10 520.67   Q 785.73 520.65 788.20 521.79   Z   M 622.34 561.10   C 620.88 567.59 618.22 569.64 613.16 573.75   Q 610.44 575.94 608.19 578.60   Q 603.98 583.55 602.71 584.97   Q 595.56 592.93 585.79 597.29   Q 573.17 602.93 562.02 607.34   Q 561.47 607.56 561.96 607.98   A 0.75 0.74 -26.9 0 0 562.52 608.16   C 576.40 607.00 589.90 604.72 602.29 598.78   C 620.97 589.81 634.31 574.14 639.74 554.29   Q 645.03 534.98 639.23 515.02   Q 634.73 499.56 624.88 487.31   Q 622.48 484.32 623.58 487.99   Q 625.38 494.03 626.58 499.79   Q 630.95 520.79 626.60 541.65   Q 625.15 548.64 622.34 561.10   Z   M 808.31 573.82   Q 819.03 565.05 824.25 555.81   C 826.86 551.20 830.44 542.85 822.93 540.31   C 818.27 538.74 812.33 540.83 808.55 543.59   Q 808.18 543.85 808.13 544.30   L 804.99 575.53   Q 804.91 576.31 805.59 575.91   Q 806.15 575.58 808.31 573.82   Z   M 704.00 632.40   C 701.44 630.11 704.19 627.50 706.27 626.00   Q 729.15 609.35 744.86 584.85   Q 748.80 578.69 751.43 572.19   C 752.63 569.20 753.58 565.04 750.69 562.77   C 748.95 561.41 745.14 563.33 743.68 564.17   Q 738.01 567.44 729.46 573.70   Q 697.33 597.27 684.45 607.22   Q 669.78 618.54 665.02 622.43   Q 663.99 623.27 663.03 623.24   Q 661.69 623.19 660.89 622.30   Q 660.08 621.42 660.35 619.52   Q 662.41 604.77 664.35 595.56   Q 664.55 594.58 665.20 593.96   Q 677.74 581.82 684.24 573.51   C 688.31 568.31 693.45 559.75 692.56 553.30   Q 691.85 548.10 686.86 544.78   A 0.94 0.94 0.0 0 0 685.55 545.05   Q 682.14 550.34 679.40 553.37   C 675.06 558.18 670.70 560.76 664.28 565.03   Q 658.55 568.84 652.53 574.31   Q 646.84 579.48 643.46 585.20   Q 642.32 587.13 637.87 598.00   Q 619.16 643.71 597.15 698.07   Q 593.47 707.16 589.22 716.44   Q 577.40 742.25 565.99 767.98   A 1.44 1.44 0.0 0 0 566.48 769.74   Q 594.35 789.04 625.84 803.83   Q 626.38 804.08 626.60 803.52   Q 631.63 790.43 648.24 747.58   C 648.80 746.14 649.53 743.37 651.02 742.79   Q 659.97 739.28 672.18 730.17   Q 706.00 704.94 707.83 703.61   Q 712.65 700.08 717.11 698.59   Q 729.79 694.37 735.65 691.62   C 740.66 689.27 744.94 686.90 747.12 682.64   Q 750.06 676.90 746.57 672.18   C 744.80 669.80 741.33 668.32 738.53 668.07   Q 731.17 667.42 718.78 669.72   C 717.24 670.01 714.47 669.13 714.70 666.97   Q 714.91 664.92 716.80 664.02   Q 726.33 659.50 732.33 656.35   Q 737.01 653.90 739.38 650.15   Q 741.92 646.14 741.64 641.50   C 741.15 633.24 734.67 629.17 726.82 629.50   C 720.26 629.77 715.32 631.01 707.49 633.00   Q 705.30 633.55 704.00 632.40   Z   M 677.77 605.20   A 0.34 0.34 0.0 0 0 677.90 604.97   L 679.89 587.50   A 0.34 0.34 0.0 0 0 679.31 587.23   L 669.18 597.56   A 0.34 0.34 0.0 0 0 669.09 597.74   L 666.37 613.76   A 0.34 0.34 0.0 0 0 666.92 614.08   L 677.77 605.20   Z   M 819.03 593.57   C 817.52 586.92 808.51 590.23 804.31 591.81   Q 792.47 596.25 778.79 604.53   Q 773.66 607.64 772.35 610.17   C 770.77 613.22 769.21 620.65 772.70 623.22   Q 774.44 624.50 777.56 623.81   Q 792.43 620.48 805.99 613.24   C 812.71 609.65 820.89 601.77 819.03 593.57   Z   M 786.29 651.74   Q 796.40 650.78 804.22 648.32   Q 808.17 647.07 809.92 644.55   Q 812.43 640.91 812.18 637.54   Q 811.49 628.35 802.11 629.24   Q 796.74 629.76 781.73 634.14   Q 774.81 636.16 772.97 637.97   Q 769.33 641.55 769.76 645.89   Q 770.24 650.82 775.02 651.58   Q 779.85 652.35 786.29 651.74   Z   M 523.62 656.00   A 0.47 0.47 0.0 0 0 523.46 655.19   Q 516.76 653.03 515.11 652.59   Q 506.69 650.33 493.03 642.70   Q 491.94 642.09 491.25 642.09   Q 373.69 642.10 364.25 642.10   A 6.44 5.95 -57.1 0 0 361.32 642.85   L 332.53 658.22   A 0.47 0.47 0.0 0 0 332.50 659.04   Q 381.47 689.39 439.52 687.04   Q 461.32 686.16 482.80 679.05   Q 505.43 671.55 523.62 656.00   Z   M 782.30 673.51   C 787.70 674.91 795.06 674.44 801.45 672.95   Q 806.51 671.77 808.42 667.63   C 809.36 665.60 810.48 661.97 809.91 659.55   Q 808.99 655.61 804.79 655.73   Q 793.94 656.03 784.55 659.99   C 781.30 661.36 777.31 665.16 777.83 669.11   Q 778.27 672.45 782.30 673.51   Z   M 743.21 731.42   C 745.27 730.47 748.41 730.33 750.68 728.43   Q 770.70 711.68 788.10 692.95   C 791.78 689.00 795.02 684.82 797.78 680.41   Q 799.00 678.45 796.84 679.36   Q 796.33 679.57 795.46 680.94   Q 792.61 685.42 790.97 687.23   Q 786.73 691.90 780.30 692.23   Q 776.76 692.42 773.76 692.67   Q 768.73 693.10 767.23 693.10   Q 747.76 693.14 746.87 693.12   Q 744.90 693.10 742.88 694.14   Q 734.62 698.41 728.24 700.49   Q 719.75 703.27 716.46 704.68   C 713.41 705.98 711.17 707.68 708.17 709.93   Q 694.89 719.86 683.47 728.46   A 3.47 3.45 78.4 0 0 682.18 730.43   L 672.33 772.43   A 0.30 0.30 0.0 0 0 672.56 772.79   L 729.31 785.20   Q 730.08 785.36 730.25 784.60   Q 735.51 760.87 741.94 733.18   Q 742.25 731.86 743.21 731.42   Z   M 640.18 817.51   Q 640.66 818.71 641.05 817.48   Q 645.40 803.96 651.78 783.79   Q 655.37 772.41 666.54 771.95   Q 667.05 771.93 667.16 771.44   L 675.91 735.03   A 0.33 0.32 -5.5 0 0 675.46 734.66   Q 675.27 734.75 674.95 734.87   Q 674.59 735.00 674.46 735.10   Q 664.84 742.59 655.06 746.90   Q 654.60 747.10 654.33 747.53   Q 652.98 749.70 651.36 753.88   Q 636.43 792.61 632.05 803.82   Q 631.35 805.60 631.57 807.10   Q 631.64 807.60 632.07 807.87   Q 637.80 811.47 640.18 817.51   Z   M 629.87 856.47   Q 629.21 857.53 629.23 858.78   L 631.60 1016.41   A 0.91 0.91 0.0 0 0 632.49 1017.31   Q 643.80 1017.56 653.11 1012.70   C 664.89 1006.55 673.92 994.78 680.03 982.77   Q 684.40 974.17 689.35 961.08   Q 699.96 932.96 707.88 910.12   Q 724.87 861.08 736.79 824.93   C 740.08 814.96 741.29 805.05 736.49 795.28   Q 734.93 792.10 732.03 791.46   Q 699.86 784.38 672.33 778.38   Q 666.73 777.16 664.77 777.51   Q 658.73 778.59 657.05 784.07   Q 652.16 800.02 645.14 821.39   Q 642.25 830.18 639.65 839.38   C 638.82 842.32 635.77 845.69 634.35 848.46   Q 632.07 852.93 629.87 856.47   Z" />
<path d="   M 390.63 200.13   A 1.26 1.26 0.0 0 1 388.85 200.30   L 388.24 199.78   A 6.43 3.54 -50.2 0 1 389.63 192.58   L 393.17 188.34   A 6.43 3.54 -50.2 0 1 400.00 185.66   L 400.62 186.18   A 1.26 1.26 0.0 0 1 400.78 187.95   L 390.63 200.13   Z" />
<path d="   M 579.38 370.29   Q 588.98 374.31 593.96 384.36   Q 594.36 385.16 594.37 386.76   C 594.39 388.46 591.99 389.54 590.60 388.78   Q 589.98 388.44 589.21 386.91   Q 584.88 378.41 577.31 375.24   Q 569.73 372.07 560.64 374.95   Q 559.01 375.48 558.33 375.28   C 556.81 374.82 555.90 372.35 557.12 371.17   Q 558.27 370.06 559.12 369.78   Q 569.77 366.27 579.38 370.29   Z" />
<path d="   M 481.28 378.51   Q 475.29 381.68 471.32 389.29   Q 470.43 390.99 468.82 391.27   A 2.04 1.98 51.8 0 1 467.62 391.11   Q 464.72 389.79 466.66 386.20   Q 471.23 377.74 478.77 373.76   Q 486.31 369.77 495.87 370.75   Q 499.93 371.17 499.39 374.31   A 2.04 1.98 72.5 0 1 498.85 375.39   Q 497.71 376.57 495.80 376.35   Q 487.28 375.34 481.28 378.51   Z" />
<path d="   M 363.67 424.17   Q 364.41 424.30 364.21 423.58   Q 362.40 416.98 356.58 408.64   Q 355.07 406.48 357.34 405.25   Q 357.38 405.23 357.55 405.14   Q 359.84 403.95 361.28 406.10   Q 368.89 417.46 370.39 427.64   A 1.61 1.60 73.5 0 1 369.47 429.34   Q 366.65 430.64 363.04 431.76   Q 361.71 432.17 358.70 434.80   C 355.52 437.58 354.72 441.98 355.92 445.73   C 356.36 447.14 357.40 448.65 358.13 449.95   C 359.09 451.66 358.10 453.08 356.44 453.71   Q 355.97 453.88 355.51 453.68   Q 354.09 453.07 353.09 451.75   C 348.02 445.06 350.02 435.11 356.16 429.79   A 1.10 1.04 24.0 0 0 355.39 427.94   L 347.61 427.77   Q 345.24 427.72 345.33 425.38   Q 345.35 424.87 346.16 423.57   A 2.15 2.14 11.2 0 1 347.62 422.60   Q 351.58 421.93 355.07 422.57   Q 362.93 424.03 363.67 424.17   Z" />
<path d="   M 554.09 462.35   Q 555.02 461.24 554.56 460.05   Q 553.76 457.97 552.76 456.08   C 547.35 445.87 543.32 437.00 545.02 426.25   Q 546.26 418.37 547.56 412.42   Q 548.14 409.78 550.71 410.14   Q 550.79 410.15 550.82 410.15   Q 553.46 410.71 552.95 413.17   Q 551.27 421.27 550.65 424.27   Q 548.58 434.44 552.64 443.54   Q 554.29 447.24 558.52 455.30   Q 562.15 462.22 556.86 467.31   C 552.31 471.69 544.24 468.94 538.70 466.12   Q 536.37 464.93 537.47 462.85   Q 537.54 462.72 537.64 462.56   Q 538.93 460.57 541.15 461.41   Q 545.61 463.10 547.70 463.84   Q 551.65 465.24 554.09 462.35   Z" />
<rect x="-6.85" y="-12.79" transform="translate(584.45,428.52) rotate(-1.0)" width="13.70" height="25.58" rx="6.49" />
<rect x="-6.39" y="-11.83" transform="translate(485.25,428.14) rotate(0.4)" width="12.78" height="23.66" rx="6.07" />
<path d="   M 515.78 498.73   C 522.52 498.72 527.69 494.57 532.01 489.48   A 2.00 1.98 -66.1 0 1 533.74 488.80   Q 535.26 488.97 536.05 490.55   C 536.87 492.18 535.04 494.34 533.97 495.48   Q 525.77 504.14 515.79 504.15   Q 505.80 504.15 497.59 495.50   C 496.52 494.36 494.69 492.21 495.51 490.58   Q 496.30 488.99 497.81 488.82   A 2.00 1.98 66.1 0 1 499.55 489.50   C 503.87 494.58 509.05 498.73 515.78 498.73   Z" />
<path d="   M 770.72 504.94   C 769.26 505.82 768.88 506.69 767.82 507.70   Q 767.46 508.04 766.96 508.07   C 764.77 508.21 764.39 506.43 764.64 504.61   Q 765.37 499.25 765.54 493.39   A 1.91 1.91 0.0 0 1 768.58 491.91   Q 771.28 493.89 777.23 497.55   Q 777.87 497.95 778.68 498.95   Q 780.06 500.66 778.03 501.49   Q 773.11 503.49 770.72 504.94   Z   M 769.83 499.13   Q 769.81 499.42 769.89 499.65   Q 770.07 500.15 770.61 500.15   Q 772.41 500.13 772.48 499.34   Q 772.54 498.55 770.76 498.24   Q 770.23 498.15 769.97 498.62   Q 769.86 498.83 769.83 499.13   Z" />
<path d="   M 415.43 1024.00   L 407.29 1024.00   Q 400.92 1018.88 398.00 1016.24   Q 379.49 999.48 362.30 979.26   Q 348.97 963.57 341.18 953.45   Q 313.33 917.21 282.05 870.55   Q 271.93 855.46 264.75 836.05   Q 258.19 818.33 254.11 806.17   Q 253.30 803.74 255.70 802.86   Q 255.79 802.83 255.80 802.83   Q 258.21 802.04 259.01 804.41   C 265.48 823.47 271.65 841.68 280.32 857.90   Q 282.46 861.91 288.78 871.23   Q 313.44 907.63 331.28 931.73   C 351.41 958.92 371.82 983.96 395.54 1006.76   Q 399.62 1010.68 405.32 1015.50   Q 410.27 1019.69 415.43 1024.00   Z" />
</g>
</g></svg>